<?xml version="1.0" encoding="utf-8" standalone="no"?>
<!DOCTYPE svg PUBLIC "-//W3C//DTD SVG 1.1//EN"
  "http://www.w3.org/Graphics/SVG/1.1/DTD/svg11.dtd">
<svg xmlns:xlink="http://www.w3.org/1999/xlink" width="460.8pt" height="345.6pt" viewBox="0 0 460.8 345.6" xmlns="http://www.w3.org/2000/svg" version="1.1">
 <metadata>
  <rdf:RDF xmlns:dc="http://purl.org/dc/elements/1.1/" xmlns:cc="http://creativecommons.org/ns#" xmlns:rdf="http://www.w3.org/1999/02/22-rdf-syntax-ns#">
   <cc:Work>
    <dc:type rdf:resource="http://purl.org/dc/dcmitype/StillImage"/>
    <dc:date>2023-05-09T10:28:58.660616</dc:date>
    <dc:format>image/svg+xml</dc:format>
    <dc:creator>
     <cc:Agent>
      <dc:title>Matplotlib v3.5.2, https://matplotlib.org/</dc:title>
     </cc:Agent>
    </dc:creator>
   </cc:Work>
  </rdf:RDF>
 </metadata>
 <defs>
  <style type="text/css">*{stroke-linejoin: round; stroke-linecap: butt}</style>
 </defs>
 <g id="figure_1">
  <g id="patch_1">
   <path d="M 0 345.6 
L 460.8 345.6 
L 460.8 0 
L 0 0 
z
" style="fill: #ffffff"/>
  </g>
  <g id="axes_1">
   <g id="patch_2">
    <path d="M 57.6 119.740235 
L 414.72 119.740235 
L 414.72 41.472 
L 57.6 41.472 
z
" style="fill: #ffffff"/>
   </g>
   <g id="matplotlib.axis_1">
    <g id="xtick_1">
     <g id="line2d_1">
      <defs>
       <path id="m341d9d55f6" d="M 0 0 
L 0 3.5 
" style="stroke: #000000; stroke-width: 0.8"/>
      </defs>
      <g>
       <use xlink:href="#m341d9d55f6" x="73.832727" y="119.740235" style="stroke: #000000; stroke-width: 0.8"/>
      </g>
     </g>
     <g id="text_1">
      <!-- 0 -->
      <g transform="translate(70.651477 134.338673)scale(0.1 -0.1)">
       <defs>
        <path id="DejaVuSans-30" d="M 2034 4250 
Q 1547 4250 1301 3770 
Q 1056 3291 1056 2328 
Q 1056 1369 1301 889 
Q 1547 409 2034 409 
Q 2525 409 2770 889 
Q 3016 1369 3016 2328 
Q 3016 3291 2770 3770 
Q 2525 4250 2034 4250 
z
M 2034 4750 
Q 2819 4750 3233 4129 
Q 3647 3509 3647 2328 
Q 3647 1150 3233 529 
Q 2819 -91 2034 -91 
Q 1250 -91 836 529 
Q 422 1150 422 2328 
Q 422 3509 836 4129 
Q 1250 4750 2034 4750 
z
" transform="scale(0.015625)"/>
       </defs>
       <use xlink:href="#DejaVuSans-30"/>
      </g>
     </g>
    </g>
    <g id="xtick_2">
     <g id="line2d_2">
      <g>
       <use xlink:href="#m341d9d55f6" x="128.396516" y="119.740235" style="stroke: #000000; stroke-width: 0.8"/>
      </g>
     </g>
     <g id="text_2">
      <!-- 20 -->
      <g transform="translate(122.034016 134.338673)scale(0.1 -0.1)">
       <defs>
        <path id="DejaVuSans-32" d="M 1228 531 
L 3431 531 
L 3431 0 
L 469 0 
L 469 531 
Q 828 903 1448 1529 
Q 2069 2156 2228 2338 
Q 2531 2678 2651 2914 
Q 2772 3150 2772 3378 
Q 2772 3750 2511 3984 
Q 2250 4219 1831 4219 
Q 1534 4219 1204 4116 
Q 875 4013 500 3803 
L 500 4441 
Q 881 4594 1212 4672 
Q 1544 4750 1819 4750 
Q 2544 4750 2975 4387 
Q 3406 4025 3406 3419 
Q 3406 3131 3298 2873 
Q 3191 2616 2906 2266 
Q 2828 2175 2409 1742 
Q 1991 1309 1228 531 
z
" transform="scale(0.015625)"/>
       </defs>
       <use xlink:href="#DejaVuSans-32"/>
       <use xlink:href="#DejaVuSans-30" x="63.623047"/>
      </g>
     </g>
    </g>
    <g id="xtick_3">
     <g id="line2d_3">
      <g>
       <use xlink:href="#m341d9d55f6" x="182.960306" y="119.740235" style="stroke: #000000; stroke-width: 0.8"/>
      </g>
     </g>
     <g id="text_3">
      <!-- 40 -->
      <g transform="translate(176.597806 134.338673)scale(0.1 -0.1)">
       <defs>
        <path id="DejaVuSans-34" d="M 2419 4116 
L 825 1625 
L 2419 1625 
L 2419 4116 
z
M 2253 4666 
L 3047 4666 
L 3047 1625 
L 3713 1625 
L 3713 1100 
L 3047 1100 
L 3047 0 
L 2419 0 
L 2419 1100 
L 313 1100 
L 313 1709 
L 2253 4666 
z
" transform="scale(0.015625)"/>
       </defs>
       <use xlink:href="#DejaVuSans-34"/>
       <use xlink:href="#DejaVuSans-30" x="63.623047"/>
      </g>
     </g>
    </g>
    <g id="xtick_4">
     <g id="line2d_4">
      <g>
       <use xlink:href="#m341d9d55f6" x="237.524095" y="119.740235" style="stroke: #000000; stroke-width: 0.8"/>
      </g>
     </g>
     <g id="text_4">
      <!-- 60 -->
      <g transform="translate(231.161595 134.338673)scale(0.1 -0.1)">
       <defs>
        <path id="DejaVuSans-36" d="M 2113 2584 
Q 1688 2584 1439 2293 
Q 1191 2003 1191 1497 
Q 1191 994 1439 701 
Q 1688 409 2113 409 
Q 2538 409 2786 701 
Q 3034 994 3034 1497 
Q 3034 2003 2786 2293 
Q 2538 2584 2113 2584 
z
M 3366 4563 
L 3366 3988 
Q 3128 4100 2886 4159 
Q 2644 4219 2406 4219 
Q 1781 4219 1451 3797 
Q 1122 3375 1075 2522 
Q 1259 2794 1537 2939 
Q 1816 3084 2150 3084 
Q 2853 3084 3261 2657 
Q 3669 2231 3669 1497 
Q 3669 778 3244 343 
Q 2819 -91 2113 -91 
Q 1303 -91 875 529 
Q 447 1150 447 2328 
Q 447 3434 972 4092 
Q 1497 4750 2381 4750 
Q 2619 4750 2861 4703 
Q 3103 4656 3366 4563 
z
" transform="scale(0.015625)"/>
       </defs>
       <use xlink:href="#DejaVuSans-36"/>
       <use xlink:href="#DejaVuSans-30" x="63.623047"/>
      </g>
     </g>
    </g>
    <g id="xtick_5">
     <g id="line2d_5">
      <g>
       <use xlink:href="#m341d9d55f6" x="292.087884" y="119.740235" style="stroke: #000000; stroke-width: 0.8"/>
      </g>
     </g>
     <g id="text_5">
      <!-- 80 -->
      <g transform="translate(285.725384 134.338673)scale(0.1 -0.1)">
       <defs>
        <path id="DejaVuSans-38" d="M 2034 2216 
Q 1584 2216 1326 1975 
Q 1069 1734 1069 1313 
Q 1069 891 1326 650 
Q 1584 409 2034 409 
Q 2484 409 2743 651 
Q 3003 894 3003 1313 
Q 3003 1734 2745 1975 
Q 2488 2216 2034 2216 
z
M 1403 2484 
Q 997 2584 770 2862 
Q 544 3141 544 3541 
Q 544 4100 942 4425 
Q 1341 4750 2034 4750 
Q 2731 4750 3128 4425 
Q 3525 4100 3525 3541 
Q 3525 3141 3298 2862 
Q 3072 2584 2669 2484 
Q 3125 2378 3379 2068 
Q 3634 1759 3634 1313 
Q 3634 634 3220 271 
Q 2806 -91 2034 -91 
Q 1263 -91 848 271 
Q 434 634 434 1313 
Q 434 1759 690 2068 
Q 947 2378 1403 2484 
z
M 1172 3481 
Q 1172 3119 1398 2916 
Q 1625 2713 2034 2713 
Q 2441 2713 2670 2916 
Q 2900 3119 2900 3481 
Q 2900 3844 2670 4047 
Q 2441 4250 2034 4250 
Q 1625 4250 1398 4047 
Q 1172 3844 1172 3481 
z
" transform="scale(0.015625)"/>
       </defs>
       <use xlink:href="#DejaVuSans-38"/>
       <use xlink:href="#DejaVuSans-30" x="63.623047"/>
      </g>
     </g>
    </g>
    <g id="xtick_6">
     <g id="line2d_6">
      <g>
       <use xlink:href="#m341d9d55f6" x="346.651673" y="119.740235" style="stroke: #000000; stroke-width: 0.8"/>
      </g>
     </g>
     <g id="text_6">
      <!-- 100 -->
      <g transform="translate(337.107923 134.338673)scale(0.1 -0.1)">
       <defs>
        <path id="DejaVuSans-31" d="M 794 531 
L 1825 531 
L 1825 4091 
L 703 3866 
L 703 4441 
L 1819 4666 
L 2450 4666 
L 2450 531 
L 3481 531 
L 3481 0 
L 794 0 
L 794 531 
z
" transform="scale(0.015625)"/>
       </defs>
       <use xlink:href="#DejaVuSans-31"/>
       <use xlink:href="#DejaVuSans-30" x="63.623047"/>
       <use xlink:href="#DejaVuSans-30" x="127.246094"/>
      </g>
     </g>
    </g>
    <g id="xtick_7">
     <g id="line2d_7">
      <g>
       <use xlink:href="#m341d9d55f6" x="401.215462" y="119.740235" style="stroke: #000000; stroke-width: 0.8"/>
      </g>
     </g>
     <g id="text_7">
      <!-- 120 -->
      <g transform="translate(391.671712 134.338673)scale(0.1 -0.1)">
       <use xlink:href="#DejaVuSans-31"/>
       <use xlink:href="#DejaVuSans-32" x="63.623047"/>
       <use xlink:href="#DejaVuSans-30" x="127.246094"/>
      </g>
     </g>
    </g>
   </g>
   <g id="matplotlib.axis_2">
    <g id="ytick_1">
     <g id="line2d_8">
      <defs>
       <path id="mc2789b67ee" d="M 0 0 
L -3.5 0 
" style="stroke: #000000; stroke-width: 0.8"/>
      </defs>
      <g>
       <use xlink:href="#mc2789b67ee" x="57.6" y="116.182588" style="stroke: #000000; stroke-width: 0.8"/>
      </g>
     </g>
     <g id="text_8">
      <!-- 0.0 -->
      <g transform="translate(34.696875 119.981807)scale(0.1 -0.1)">
       <defs>
        <path id="DejaVuSans-2e" d="M 684 794 
L 1344 794 
L 1344 0 
L 684 0 
L 684 794 
z
" transform="scale(0.015625)"/>
       </defs>
       <use xlink:href="#DejaVuSans-30"/>
       <use xlink:href="#DejaVuSans-2e" x="63.623047"/>
       <use xlink:href="#DejaVuSans-30" x="95.410156"/>
      </g>
     </g>
    </g>
    <g id="ytick_2">
     <g id="line2d_9">
      <g>
       <use xlink:href="#mc2789b67ee" x="57.6" y="80.606118" style="stroke: #000000; stroke-width: 0.8"/>
      </g>
     </g>
     <g id="text_9">
      <!-- 0.5 -->
      <g transform="translate(34.696875 84.405336)scale(0.1 -0.1)">
       <defs>
        <path id="DejaVuSans-35" d="M 691 4666 
L 3169 4666 
L 3169 4134 
L 1269 4134 
L 1269 2991 
Q 1406 3038 1543 3061 
Q 1681 3084 1819 3084 
Q 2600 3084 3056 2656 
Q 3513 2228 3513 1497 
Q 3513 744 3044 326 
Q 2575 -91 1722 -91 
Q 1428 -91 1123 -41 
Q 819 9 494 109 
L 494 744 
Q 775 591 1075 516 
Q 1375 441 1709 441 
Q 2250 441 2565 725 
Q 2881 1009 2881 1497 
Q 2881 1984 2565 2268 
Q 2250 2553 1709 2553 
Q 1456 2553 1204 2497 
Q 953 2441 691 2322 
L 691 4666 
z
" transform="scale(0.015625)"/>
       </defs>
       <use xlink:href="#DejaVuSans-30"/>
       <use xlink:href="#DejaVuSans-2e" x="63.623047"/>
       <use xlink:href="#DejaVuSans-35" x="95.410156"/>
      </g>
     </g>
    </g>
    <g id="ytick_3">
     <g id="line2d_10">
      <g>
       <use xlink:href="#mc2789b67ee" x="57.6" y="45.029647" style="stroke: #000000; stroke-width: 0.8"/>
      </g>
     </g>
     <g id="text_10">
      <!-- 1.0 -->
      <g transform="translate(34.696875 48.828866)scale(0.1 -0.1)">
       <use xlink:href="#DejaVuSans-31"/>
       <use xlink:href="#DejaVuSans-2e" x="63.623047"/>
       <use xlink:href="#DejaVuSans-30" x="95.410156"/>
      </g>
     </g>
    </g>
   </g>
   <g id="line2d_11">
    <path d="M 73.832727 116.182588 
L 76.560917 115.823113 
L 79.289106 115.998631 
L 82.017296 115.956344 
L 84.745485 116.182588 
L 87.473675 115.808745 
L 90.201864 115.967545 
L 92.930053 115.829138 
L 95.658243 116.182588 
L 98.386432 116.182588 
L 101.114622 115.970443 
L 103.842811 115.96636 
L 106.571001 116.182588 
L 109.29919 115.99126 
L 112.02738 116.108618 
L 114.755569 116.090553 
L 117.483759 115.693506 
L 120.211948 116.182588 
L 122.940138 116.182588 
L 125.668327 116.182588 
L 128.396516 115.906111 
L 131.124706 116.125799 
L 133.852895 115.951858 
L 136.581085 116.182588 
L 139.309274 116.182588 
L 142.037464 116.182588 
L 144.765653 116.182588 
L 147.493843 116.182588 
L 150.222032 116.182588 
L 152.950222 116.182588 
L 155.678411 116.182588 
L 158.4066 116.182588 
L 161.13479 116.182588 
L 163.862979 116.182588 
L 166.591169 116.182588 
L 169.319358 116.182588 
L 172.047548 116.182588 
L 174.775737 116.087635 
L 177.503927 116.182588 
L 180.232116 116.182588 
L 182.960306 116.182588 
L 185.688495 116.182588 
L 188.416684 116.182588 
L 191.144874 116.182588 
L 193.873063 116.182588 
L 196.601253 116.182588 
L 199.329442 116.182588 
L 202.057632 115.505527 
L 204.785821 113.941124 
L 207.514011 114.657461 
L 210.2422 113.978746 
L 212.97039 114.754495 
L 215.698579 114.024141 
L 218.426769 113.45222 
L 221.154958 114.777235 
L 223.883147 113.599904 
L 226.611337 113.96051 
L 229.339526 114.59249 
L 232.067716 113.262428 
L 234.795905 113.428412 
L 237.524095 114.639035 
L 240.252284 114.793248 
L 242.980474 114.655175 
L 245.708663 114.608839 
L 248.436853 115.376915 
L 251.165042 115.553725 
L 253.893231 115.67369 
L 256.621421 115.601164 
L 259.34961 115.433913 
L 262.0778 115.688286 
L 264.805989 115.954519 
L 267.534179 115.941443 
L 270.262368 116.061103 
L 272.990558 116.048027 
L 275.718747 116.021571 
L 278.446937 116.182588 
L 281.175126 116.115156 
L 283.903316 116.034647 
L 286.631505 116.182588 
L 289.359694 116.182588 
L 292.087884 116.182588 
L 294.816073 115.940488 
L 297.544263 115.660448 
L 300.272452 116.182588 
L 303.000642 116.182588 
L 305.728831 116.182588 
L 308.457021 116.182588 
L 311.18521 115.89313 
L 313.9134 116.182588 
L 316.641589 116.182588 
L 319.369778 116.182588 
L 322.097968 116.182588 
L 324.826157 116.182588 
L 327.554347 116.182588 
L 330.282536 116.182588 
L 333.010726 116.182588 
L 335.738915 116.182588 
L 338.467105 116.182588 
L 341.195294 116.182588 
L 343.923484 115.912364 
L 346.651673 116.182588 
L 349.379862 116.182588 
L 352.108052 116.182588 
L 354.836241 116.182588 
L 357.564431 116.182588 
L 360.29262 116.182588 
L 363.02081 116.182588 
L 365.748999 116.182588 
L 368.477189 116.182588 
L 371.205378 116.182588 
L 373.933568 116.182588 
L 376.661757 116.182588 
L 379.389947 116.182588 
L 382.118136 116.182588 
L 384.846325 116.182588 
L 387.574515 116.182588 
L 390.302704 116.182588 
L 393.030894 115.877194 
L 395.759083 115.586173 
L 398.487273 116.182588 
" clip-path="url(#p04415ecd44)" style="fill: none; stroke: #0000ff; stroke-width: 0.5; stroke-linecap: square"/>
   </g>
   <g id="line2d_12">
    <path d="M 73.832727 116.182588 
L 76.560917 115.823113 
L 79.289106 115.904971 
L 82.017296 115.949958 
L 84.745485 116.182588 
L 87.473675 115.757353 
L 90.201864 115.967545 
L 92.930053 116.030447 
L 95.658243 116.182588 
L 98.386432 116.182588 
L 101.114622 115.875652 
L 103.842811 116.182588 
L 106.571001 116.092615 
L 109.29919 115.99126 
L 112.02738 116.108618 
L 114.755569 116.090553 
L 117.483759 115.693506 
L 120.211948 116.182588 
L 122.940138 116.167308 
L 125.668327 116.182588 
L 128.396516 116.009814 
L 131.124706 115.627304 
L 133.852895 116.026038 
L 136.581085 116.165849 
L 139.309274 116.052038 
L 142.037464 116.176906 
L 144.765653 116.134197 
L 147.493843 116.182588 
L 150.222032 116.182588 
L 152.950222 116.182588 
L 155.678411 116.182588 
L 158.4066 116.182588 
L 161.13479 116.182588 
L 163.862979 116.182588 
L 166.591169 116.182588 
L 169.319358 116.182588 
L 172.047548 116.182588 
L 174.775737 115.908297 
L 177.503927 115.794719 
L 180.232116 115.880625 
L 182.960306 113.468298 
L 185.688495 111.926014 
L 188.416684 111.337267 
L 191.144874 109.317667 
L 193.873063 108.448172 
L 196.601253 100.195012 
L 199.329442 97.172714 
L 202.057632 96.431946 
L 204.785821 92.164884 
L 207.514011 94.974203 
L 210.2422 93.331036 
L 212.97039 90.061335 
L 215.698579 88.185238 
L 218.426769 97.285946 
L 221.154958 99.705157 
L 223.883147 101.003099 
L 226.611337 102.675934 
L 229.339526 101.620435 
L 232.067716 101.858007 
L 234.795905 102.689158 
L 237.524095 101.492878 
L 240.252284 101.823426 
L 242.980474 102.461032 
L 245.708663 102.657447 
L 248.436853 102.242199 
L 251.165042 103.022661 
L 253.893231 103.347589 
L 256.621421 106.249449 
L 259.34961 106.488381 
L 262.0778 109.071911 
L 264.805989 109.967153 
L 267.534179 111.104632 
L 270.262368 113.655781 
L 272.990558 115.380545 
L 275.718747 115.393621 
L 278.446937 115.520883 
L 281.175126 115.16577 
L 283.903316 115.980671 
L 286.631505 115.807794 
L 289.359694 116.182588 
L 292.087884 116.182588 
L 294.816073 116.182588 
L 297.544263 116.182588 
L 300.272452 116.182588 
L 303.000642 116.182588 
L 305.728831 115.559223 
L 308.457021 116.182588 
L 311.18521 116.182588 
L 313.9134 116.182588 
L 316.641589 116.182588 
L 319.369778 116.182588 
L 322.097968 116.182588 
L 324.826157 116.182588 
L 327.554347 116.182588 
L 330.282536 116.182588 
L 333.010726 116.182588 
L 335.738915 116.182588 
L 338.467105 116.182588 
L 341.195294 116.182588 
L 343.923484 116.094173 
L 346.651673 116.182588 
L 349.379862 116.182588 
L 352.108052 116.182588 
L 354.836241 116.182588 
L 357.564431 116.182588 
L 360.29262 116.182588 
L 363.02081 116.182588 
L 365.748999 116.182588 
L 368.477189 116.182588 
L 371.205378 116.182588 
L 373.933568 116.182588 
L 376.661757 116.182588 
L 379.389947 116.182588 
L 382.118136 116.182588 
L 384.846325 116.182588 
L 387.574515 116.182588 
L 390.302704 116.182588 
L 393.030894 115.97114 
L 395.759083 115.672383 
L 398.487273 116.182588 
" clip-path="url(#p04415ecd44)" style="fill: none; stroke: #0000ff; stroke-linecap: square"/>
   </g>
   <g id="line2d_13">
    <path d="M 73.832727 116.182588 
L 76.560917 116.182588 
L 79.289106 115.952618 
L 82.017296 116.151286 
L 84.745485 116.182588 
L 87.473675 116.182588 
L 90.201864 116.147142 
L 92.930053 115.959137 
L 95.658243 116.182588 
L 98.386432 116.182588 
L 101.114622 116.182588 
L 103.842811 116.182588 
L 106.571001 116.055041 
L 109.29919 116.112908 
L 112.02738 116.182588 
L 114.755569 115.823396 
L 117.483759 116.170729 
L 120.211948 116.046162 
L 122.940138 116.182588 
L 125.668327 116.182588 
L 128.396516 116.11584 
L 131.124706 116.182588 
L 133.852895 116.138877 
L 136.581085 116.182588 
L 139.309274 115.679734 
L 142.037464 115.794424 
L 144.765653 115.749637 
L 147.493843 116.182588 
L 150.222032 115.907784 
L 152.950222 116.182588 
L 155.678411 116.049396 
L 158.4066 115.902215 
L 161.13479 115.240354 
L 163.862979 114.977594 
L 166.591169 113.340912 
L 169.319358 110.394971 
L 172.047548 109.170488 
L 174.775737 106.104033 
L 177.503927 95.374712 
L 180.232116 90.531928 
L 182.960306 78.371448 
L 185.688495 76.097674 
L 188.416684 67.270207 
L 191.144874 63.194886 
L 193.873063 65.85691 
L 196.601253 63.530375 
L 199.329442 62.773794 
L 202.057632 66.524848 
L 204.785821 62.857647 
L 207.514011 67.070086 
L 210.2422 68.832187 
L 212.97039 69.095188 
L 215.698579 72.208589 
L 218.426769 72.835448 
L 221.154958 77.454964 
L 223.883147 85.9687 
L 226.611337 82.748676 
L 229.339526 85.201233 
L 232.067716 89.780687 
L 234.795905 93.803422 
L 237.524095 94.621114 
L 240.252284 98.666796 
L 242.980474 103.280676 
L 245.708663 104.240353 
L 248.436853 105.065039 
L 251.165042 103.852216 
L 253.893231 106.081801 
L 256.621421 109.335675 
L 259.34961 112.712467 
L 262.0778 113.917257 
L 264.805989 113.695831 
L 267.534179 113.606432 
L 270.262368 114.442781 
L 272.990558 114.382286 
L 275.718747 115.091073 
L 278.446937 115.740001 
L 281.175126 116.048897 
L 283.903316 116.182588 
L 286.631505 116.182588 
L 289.359694 116.182588 
L 292.087884 116.182588 
L 294.816073 116.182588 
L 297.544263 116.182588 
L 300.272452 116.182588 
L 303.000642 116.182588 
L 305.728831 116.182588 
L 308.457021 116.182588 
L 311.18521 116.182588 
L 313.9134 116.182588 
L 316.641589 116.182588 
L 319.369778 116.182588 
L 322.097968 116.182588 
L 324.826157 116.182588 
L 327.554347 116.182588 
L 330.282536 116.182588 
L 333.010726 116.182588 
L 335.738915 116.182588 
L 338.467105 116.182588 
L 341.195294 116.182588 
L 343.923484 116.182588 
L 346.651673 116.182588 
L 349.379862 116.182588 
L 352.108052 116.182588 
L 354.836241 116.182588 
L 357.564431 116.182588 
L 360.29262 116.182588 
L 363.02081 116.182588 
L 365.748999 116.182588 
L 368.477189 116.182588 
L 371.205378 116.182588 
L 373.933568 116.182588 
L 376.661757 116.182588 
L 379.389947 116.038306 
L 382.118136 116.182588 
L 384.846325 115.983674 
L 387.574515 116.182588 
L 390.302704 116.182588 
L 393.030894 115.892855 
L 395.759083 116.077296 
L 398.487273 116.182175 
" clip-path="url(#p04415ecd44)" style="fill: none; stroke: #0000ff; stroke-width: 1.5; stroke-linecap: square"/>
   </g>
   <g id="line2d_14">
    <path d="M 73.832727 116.182588 
L 76.560917 115.823113 
L 79.289106 115.998631 
L 82.017296 115.949958 
L 84.745485 116.182588 
L 87.473675 115.763739 
L 90.201864 115.967545 
L 92.930053 115.979169 
L 95.658243 116.182588 
L 98.386432 116.182588 
L 101.114622 115.970443 
L 103.842811 115.96636 
L 106.571001 116.182588 
L 109.29919 115.99126 
L 112.02738 116.108618 
L 114.755569 116.090553 
L 117.483759 115.852242 
L 120.211948 116.182588 
L 122.940138 116.169189 
L 125.668327 116.182588 
L 128.396516 116.182588 
L 131.124706 116.182588 
L 133.852895 116.106176 
L 136.581085 116.182588 
L 139.309274 115.688096 
L 142.037464 116.115156 
L 144.765653 116.128232 
L 147.493843 116.182588 
L 150.222032 116.042858 
L 152.950222 115.849151 
L 155.678411 115.942811 
L 158.4066 116.029782 
L 161.13479 115.983712 
L 163.862979 115.6494 
L 166.591169 114.623265 
L 169.319358 112.354774 
L 172.047548 109.228054 
L 174.775737 106.664433 
L 177.503927 98.220426 
L 180.232116 89.984239 
L 182.960306 79.884763 
L 185.688495 72.36992 
L 188.416684 65.251918 
L 191.144874 52.988104 
L 193.873063 49.925058 
L 196.601253 47.106807 
L 199.329442 45.103446 
L 202.057632 45.029647 
L 204.785821 45.693081 
L 207.514011 45.749947 
L 210.2422 45.797556 
L 212.97039 46.134015 
L 215.698579 47.807739 
L 218.426769 51.73205 
L 221.154958 56.568182 
L 223.883147 59.006546 
L 226.611337 60.89131 
L 229.339526 61.161534 
L 232.067716 62.221562 
L 234.795905 65.471625 
L 237.524095 67.905845 
L 240.252284 70.84581 
L 242.980474 73.22155 
L 245.708663 81.990032 
L 248.436853 81.540736 
L 251.165042 85.559762 
L 253.893231 87.276591 
L 256.621421 87.460919 
L 259.34961 90.211728 
L 262.0778 94.101135 
L 264.805989 98.12611 
L 267.534179 101.411466 
L 270.262368 105.307202 
L 272.990558 105.76642 
L 275.718747 110.117249 
L 278.446937 112.819974 
L 281.175126 114.683983 
L 283.903316 114.690103 
L 286.631505 115.888379 
L 289.359694 116.015394 
L 292.087884 116.182588 
L 294.816073 116.182588 
L 297.544263 116.182588 
L 300.272452 116.182588 
L 303.000642 116.182588 
L 305.728831 116.182588 
L 308.457021 116.182588 
L 311.18521 116.182588 
L 313.9134 116.182588 
L 316.641589 116.182588 
L 319.369778 116.050422 
L 322.097968 116.182588 
L 324.826157 116.182588 
L 327.554347 116.182588 
L 330.282536 116.182588 
L 333.010726 116.182588 
L 335.738915 116.182588 
L 338.467105 116.16095 
L 341.195294 116.182588 
L 343.923484 116.182588 
L 346.651673 116.182588 
L 349.379862 116.182588 
L 352.108052 116.182588 
L 354.836241 116.182588 
L 357.564431 116.182588 
L 360.29262 116.182588 
L 363.02081 116.182588 
L 365.748999 116.182588 
L 368.477189 116.182588 
L 371.205378 116.182588 
L 373.933568 116.182588 
L 376.661757 116.182588 
L 379.389947 116.182588 
L 382.118136 116.182588 
L 384.846325 116.182588 
L 387.574515 116.182588 
L 390.302704 116.182588 
L 393.030894 115.594702 
L 395.759083 115.665845 
L 398.487273 116.182588 
" clip-path="url(#p04415ecd44)" style="fill: none; stroke: #0000ff; stroke-width: 2; stroke-linecap: square"/>
   </g>
   <g id="patch_3">
    <path d="M 57.6 119.740235 
L 57.6 41.472 
" style="fill: none; stroke: #000000; stroke-width: 0.8; stroke-linejoin: miter; stroke-linecap: square"/>
   </g>
   <g id="patch_4">
    <path d="M 414.72 119.740235 
L 414.72 41.472 
" style="fill: none; stroke: #000000; stroke-width: 0.8; stroke-linejoin: miter; stroke-linecap: square"/>
   </g>
   <g id="patch_5">
    <path d="M 57.6 119.740235 
L 414.72 119.740235 
" style="fill: none; stroke: #000000; stroke-width: 0.8; stroke-linejoin: miter; stroke-linecap: square"/>
   </g>
   <g id="patch_6">
    <path d="M 57.6 41.472 
L 414.72 41.472 
" style="fill: none; stroke: #000000; stroke-width: 0.8; stroke-linejoin: miter; stroke-linecap: square"/>
   </g>
   <g id="legend_1">
    <g id="patch_7">
     <path d="M 356.6325 108.1845 
L 407.72 108.1845 
Q 409.72 108.1845 409.72 106.1845 
L 409.72 48.472 
Q 409.72 46.472 407.72 46.472 
L 356.6325 46.472 
Q 354.6325 46.472 354.6325 48.472 
L 354.6325 106.1845 
Q 354.6325 108.1845 356.6325 108.1845 
z
" style="fill: #ffffff; opacity: 0.8; stroke: #cccccc; stroke-linejoin: miter"/>
    </g>
    <g id="line2d_15">
     <path d="M 358.6325 54.570437 
L 368.6325 54.570437 
L 378.6325 54.570437 
" style="fill: none; stroke: #0000ff; stroke-width: 0.5; stroke-linecap: square"/>
    </g>
    <g id="text_11">
     <!-- 25 -->
     <g transform="translate(386.6325 58.070437)scale(0.1 -0.1)">
      <use xlink:href="#DejaVuSans-32"/>
      <use xlink:href="#DejaVuSans-35" x="63.623047"/>
     </g>
    </g>
    <g id="line2d_16">
     <path d="M 358.6325 69.248562 
L 368.6325 69.248562 
L 378.6325 69.248562 
" style="fill: none; stroke: #0000ff; stroke-linecap: square"/>
    </g>
    <g id="text_12">
     <!-- 50 -->
     <g transform="translate(386.6325 72.748562)scale(0.1 -0.1)">
      <use xlink:href="#DejaVuSans-35"/>
      <use xlink:href="#DejaVuSans-30" x="63.623047"/>
     </g>
    </g>
    <g id="line2d_17">
     <path d="M 358.6325 83.926687 
L 368.6325 83.926687 
L 378.6325 83.926687 
" style="fill: none; stroke: #0000ff; stroke-width: 1.5; stroke-linecap: square"/>
    </g>
    <g id="text_13">
     <!-- 75 -->
     <g transform="translate(386.6325 87.426687)scale(0.1 -0.1)">
      <defs>
       <path id="DejaVuSans-37" d="M 525 4666 
L 3525 4666 
L 3525 4397 
L 1831 0 
L 1172 0 
L 2766 4134 
L 525 4134 
L 525 4666 
z
" transform="scale(0.015625)"/>
      </defs>
      <use xlink:href="#DejaVuSans-37"/>
      <use xlink:href="#DejaVuSans-35" x="63.623047"/>
     </g>
    </g>
    <g id="line2d_18">
     <path d="M 358.6325 98.604812 
L 368.6325 98.604812 
L 378.6325 98.604812 
" style="fill: none; stroke: #0000ff; stroke-width: 2; stroke-linecap: square"/>
    </g>
    <g id="text_14">
     <!-- 100 -->
     <g transform="translate(386.6325 102.104812)scale(0.1 -0.1)">
      <use xlink:href="#DejaVuSans-31"/>
      <use xlink:href="#DejaVuSans-30" x="63.623047"/>
      <use xlink:href="#DejaVuSans-30" x="127.246094"/>
     </g>
    </g>
   </g>
  </g>
  <g id="axes_2">
   <g id="patch_8">
    <path d="M 57.6 213.662118 
L 414.72 213.662118 
L 414.72 135.393882 
L 57.6 135.393882 
z
" style="fill: #ffffff"/>
   </g>
   <g id="matplotlib.axis_3">
    <g id="xtick_8">
     <g id="line2d_19">
      <g>
       <use xlink:href="#m341d9d55f6" x="73.832727" y="213.662118" style="stroke: #000000; stroke-width: 0.8"/>
      </g>
     </g>
     <g id="text_15">
      <!-- 0 -->
      <g transform="translate(70.651477 228.260555)scale(0.1 -0.1)">
       <use xlink:href="#DejaVuSans-30"/>
      </g>
     </g>
    </g>
    <g id="xtick_9">
     <g id="line2d_20">
      <g>
       <use xlink:href="#m341d9d55f6" x="128.396516" y="213.662118" style="stroke: #000000; stroke-width: 0.8"/>
      </g>
     </g>
     <g id="text_16">
      <!-- 20 -->
      <g transform="translate(122.034016 228.260555)scale(0.1 -0.1)">
       <use xlink:href="#DejaVuSans-32"/>
       <use xlink:href="#DejaVuSans-30" x="63.623047"/>
      </g>
     </g>
    </g>
    <g id="xtick_10">
     <g id="line2d_21">
      <g>
       <use xlink:href="#m341d9d55f6" x="182.960306" y="213.662118" style="stroke: #000000; stroke-width: 0.8"/>
      </g>
     </g>
     <g id="text_17">
      <!-- 40 -->
      <g transform="translate(176.597806 228.260555)scale(0.1 -0.1)">
       <use xlink:href="#DejaVuSans-34"/>
       <use xlink:href="#DejaVuSans-30" x="63.623047"/>
      </g>
     </g>
    </g>
    <g id="xtick_11">
     <g id="line2d_22">
      <g>
       <use xlink:href="#m341d9d55f6" x="237.524095" y="213.662118" style="stroke: #000000; stroke-width: 0.8"/>
      </g>
     </g>
     <g id="text_18">
      <!-- 60 -->
      <g transform="translate(231.161595 228.260555)scale(0.1 -0.1)">
       <use xlink:href="#DejaVuSans-36"/>
       <use xlink:href="#DejaVuSans-30" x="63.623047"/>
      </g>
     </g>
    </g>
    <g id="xtick_12">
     <g id="line2d_23">
      <g>
       <use xlink:href="#m341d9d55f6" x="292.087884" y="213.662118" style="stroke: #000000; stroke-width: 0.8"/>
      </g>
     </g>
     <g id="text_19">
      <!-- 80 -->
      <g transform="translate(285.725384 228.260555)scale(0.1 -0.1)">
       <use xlink:href="#DejaVuSans-38"/>
       <use xlink:href="#DejaVuSans-30" x="63.623047"/>
      </g>
     </g>
    </g>
    <g id="xtick_13">
     <g id="line2d_24">
      <g>
       <use xlink:href="#m341d9d55f6" x="346.651673" y="213.662118" style="stroke: #000000; stroke-width: 0.8"/>
      </g>
     </g>
     <g id="text_20">
      <!-- 100 -->
      <g transform="translate(337.107923 228.260555)scale(0.1 -0.1)">
       <use xlink:href="#DejaVuSans-31"/>
       <use xlink:href="#DejaVuSans-30" x="63.623047"/>
       <use xlink:href="#DejaVuSans-30" x="127.246094"/>
      </g>
     </g>
    </g>
    <g id="xtick_14">
     <g id="line2d_25">
      <g>
       <use xlink:href="#m341d9d55f6" x="401.215462" y="213.662118" style="stroke: #000000; stroke-width: 0.8"/>
      </g>
     </g>
     <g id="text_21">
      <!-- 120 -->
      <g transform="translate(391.671712 228.260555)scale(0.1 -0.1)">
       <use xlink:href="#DejaVuSans-31"/>
       <use xlink:href="#DejaVuSans-32" x="63.623047"/>
       <use xlink:href="#DejaVuSans-30" x="127.246094"/>
      </g>
     </g>
    </g>
   </g>
   <g id="matplotlib.axis_4">
    <g id="ytick_4">
     <g id="line2d_26">
      <g>
       <use xlink:href="#mc2789b67ee" x="57.6" y="210.104471" style="stroke: #000000; stroke-width: 0.8"/>
      </g>
     </g>
     <g id="text_22">
      <!-- 0.0 -->
      <g transform="translate(34.696875 213.903689)scale(0.1 -0.1)">
       <use xlink:href="#DejaVuSans-30"/>
       <use xlink:href="#DejaVuSans-2e" x="63.623047"/>
       <use xlink:href="#DejaVuSans-30" x="95.410156"/>
      </g>
     </g>
    </g>
    <g id="ytick_5">
     <g id="line2d_27">
      <g>
       <use xlink:href="#mc2789b67ee" x="57.6" y="174.528" style="stroke: #000000; stroke-width: 0.8"/>
      </g>
     </g>
     <g id="text_23">
      <!-- 0.5 -->
      <g transform="translate(34.696875 178.327219)scale(0.1 -0.1)">
       <use xlink:href="#DejaVuSans-30"/>
       <use xlink:href="#DejaVuSans-2e" x="63.623047"/>
       <use xlink:href="#DejaVuSans-35" x="95.410156"/>
      </g>
     </g>
    </g>
    <g id="ytick_6">
     <g id="line2d_28">
      <g>
       <use xlink:href="#mc2789b67ee" x="57.6" y="138.951529" style="stroke: #000000; stroke-width: 0.8"/>
      </g>
     </g>
     <g id="text_24">
      <!-- 1.0 -->
      <g transform="translate(34.696875 142.750748)scale(0.1 -0.1)">
       <use xlink:href="#DejaVuSans-31"/>
       <use xlink:href="#DejaVuSans-2e" x="63.623047"/>
       <use xlink:href="#DejaVuSans-30" x="95.410156"/>
      </g>
     </g>
    </g>
   </g>
   <g id="line2d_29">
    <path d="M 73.832727 210.104471 
L 76.560917 210.104471 
L 79.289106 208.891316 
L 82.017296 209.219973 
L 84.745485 209.819255 
L 87.473675 209.810654 
L 90.201864 210.104471 
L 92.930053 208.396458 
L 95.658243 209.841537 
L 98.386432 209.178222 
L 101.114622 209.859598 
L 103.842811 210.104471 
L 106.571001 208.281997 
L 109.29919 210.102594 
L 112.02738 210.104471 
L 114.755569 210.104471 
L 117.483759 207.694325 
L 120.211948 210.104471 
L 122.940138 208.187355 
L 125.668327 210.104471 
L 128.396516 210.104471 
L 131.124706 209.51807 
L 133.852895 210.104471 
L 136.581085 210.104471 
L 139.309274 209.497214 
L 142.037464 210.001033 
L 144.765653 208.746802 
L 147.493843 208.151976 
L 150.222032 210.046849 
L 152.950222 208.979713 
L 155.678411 209.208245 
L 158.4066 209.933091 
L 161.13479 210.104471 
L 163.862979 209.390336 
L 166.591169 208.84031 
L 169.319358 210.102985 
L 172.047548 210.104471 
L 174.775737 210.104471 
L 177.503927 208.985107 
L 180.232116 208.929518 
L 182.960306 207.60844 
L 185.688495 207.535259 
L 188.416684 206.840984 
L 191.144874 206.674725 
L 193.873063 206.852907 
L 196.601253 205.161431 
L 199.329442 207.047195 
L 202.057632 205.136099 
L 204.785821 205.515869 
L 207.514011 206.755294 
L 210.2422 205.063231 
L 212.97039 205.459313 
L 215.698579 205.45212 
L 218.426769 206.034357 
L 221.154958 206.021457 
L 223.883147 206.054216 
L 226.611337 207.268339 
L 229.339526 206.036312 
L 232.067716 206.642943 
L 234.795905 206.508427 
L 237.524095 206.913695 
L 240.252284 207.418491 
L 242.980474 208.398804 
L 245.708663 207.076787 
L 248.436853 207.290582 
L 251.165042 206.706663 
L 253.893231 207.03793 
L 256.621421 207.348517 
L 259.34961 207.035565 
L 262.0778 204.988175 
L 264.805989 204.930396 
L 267.534179 204.020254 
L 270.262368 207.020612 
L 272.990558 204.907019 
L 275.718747 205.061668 
L 278.446937 205.794175 
L 281.175126 205.566816 
L 283.903316 206.020362 
L 286.631505 206.666398 
L 289.359694 208.020862 
L 292.087884 208.255961 
L 294.816073 209.332089 
L 297.544263 208.585508 
L 300.272452 210.104471 
L 303.000642 210.104471 
L 305.728831 208.086224 
L 308.457021 210.104471 
L 311.18521 210.05928 
L 313.9134 208.901685 
L 316.641589 210.104471 
L 319.369778 209.414886 
L 322.097968 210.104471 
L 324.826157 209.387951 
L 327.554347 208.588244 
L 330.282536 208.531092 
L 333.010726 209.149998 
L 335.738915 210.104471 
L 338.467105 209.695254 
L 341.195294 209.962644 
L 343.923484 209.766558 
L 346.651673 209.9198 
L 349.379862 210.104471 
L 352.108052 209.754362 
L 354.836241 209.262349 
L 357.564431 209.696584 
L 360.29262 210.104471 
L 363.02081 210.104471 
L 365.748999 210.104471 
L 368.477189 209.49565 
L 371.205378 210.013933 
L 373.933568 209.224351 
L 376.661757 210.104471 
L 379.389947 208.190834 
L 382.118136 209.430601 
L 384.846325 209.960846 
L 387.574515 208.31374 
L 390.302704 209.083307 
L 393.030894 208.005537 
L 395.759083 207.897487 
L 398.487273 209.12623 
" clip-path="url(#pf7bd99bf13)" style="fill: none; stroke: #00bf00; stroke-width: 0.5; stroke-linecap: square"/>
   </g>
   <g id="line2d_30">
    <path d="M 73.832727 210.104471 
L 76.560917 209.990713 
L 79.289106 208.891316 
L 82.017296 209.311292 
L 84.745485 209.677428 
L 87.473675 209.901348 
L 90.201864 210.104471 
L 92.930053 208.561974 
L 95.658243 209.841537 
L 98.386432 209.178222 
L 101.114622 209.901661 
L 103.842811 210.104471 
L 106.571001 208.281997 
L 109.29919 210.102594 
L 112.02738 210.104471 
L 114.755569 210.104471 
L 117.483759 208.923381 
L 120.211948 210.104471 
L 122.940138 208.306742 
L 125.668327 209.971509 
L 128.396516 210.104471 
L 131.124706 209.658322 
L 133.852895 209.811905 
L 136.581085 210.104471 
L 139.309274 209.938564 
L 142.037464 209.446941 
L 144.765653 208.702471 
L 147.493843 209.788528 
L 150.222032 210.007405 
L 152.950222 209.666952 
L 155.678411 210.104471 
L 158.4066 210.058889 
L 161.13479 208.045832 
L 163.862979 209.529582 
L 166.591169 207.028626 
L 169.319358 204.125021 
L 172.047548 203.321678 
L 174.775737 202.198484 
L 177.503927 201.020092 
L 180.232116 199.559924 
L 182.960306 198.001712 
L 185.688495 196.396903 
L 188.416684 194.836972 
L 191.144874 194.608674 
L 193.873063 193.688603 
L 196.601253 190.615025 
L 199.329442 191.081629 
L 202.057632 185.049561 
L 204.785821 190.069612 
L 207.514011 187.719708 
L 210.2422 188.043703 
L 212.97039 184.154508 
L 215.698579 189.072607 
L 218.426769 187.67655 
L 221.154958 187.757236 
L 223.883147 185.519292 
L 226.611337 187.259359 
L 229.339526 184.389686 
L 232.067716 184.133868 
L 234.795905 183.343894 
L 237.524095 184.288985 
L 240.252284 185.871433 
L 242.980474 184.865672 
L 245.708663 184.733071 
L 248.436853 184.449106 
L 251.165042 183.979376 
L 253.893231 187.919859 
L 256.621421 187.305019 
L 259.34961 187.718457 
L 262.0778 190.795787 
L 264.805989 190.108392 
L 267.534179 192.900506 
L 270.262368 193.573515 
L 272.990558 195.395207 
L 275.718747 195.122501 
L 278.446937 196.18174 
L 281.175126 197.626585 
L 283.903316 200.751294 
L 286.631505 200.919078 
L 289.359694 202.418494 
L 292.087884 204.568325 
L 294.816073 204.798969 
L 297.544263 205.438906 
L 300.272452 203.898365 
L 303.000642 203.928388 
L 305.728831 206.990081 
L 308.457021 206.986015 
L 311.18521 209.40394 
L 313.9134 207.18648 
L 316.641589 209.118568 
L 319.369778 210.104471 
L 322.097968 210.104471 
L 324.826157 210.104471 
L 327.554347 210.104471 
L 330.282536 210.104471 
L 333.010726 210.104471 
L 335.738915 209.955139 
L 338.467105 210.104471 
L 341.195294 209.473524 
L 343.923484 209.863663 
L 346.651673 209.417466 
L 349.379862 208.731869 
L 352.108052 209.235844 
L 354.836241 210.104471 
L 357.564431 209.550301 
L 360.29262 210.104471 
L 363.02081 210.104471 
L 365.748999 210.02613 
L 368.477189 210.104471 
L 371.205378 208.809037 
L 373.933568 207.757537 
L 376.661757 210.104471 
L 379.389947 208.623662 
L 382.118136 208.667836 
L 384.846325 210.104471 
L 387.574515 208.239308 
L 390.302704 210.054198 
L 393.030894 208.596454 
L 395.759083 208.315499 
L 398.487273 209.221302 
" clip-path="url(#pf7bd99bf13)" style="fill: none; stroke: #00bf00; stroke-linecap: square"/>
   </g>
   <g id="line2d_31">
    <path d="M 73.832727 210.104471 
L 76.560917 210.104471 
L 79.289106 208.801091 
L 82.017296 209.311292 
L 84.745485 209.8621 
L 87.473675 209.900801 
L 90.201864 210.104471 
L 92.930053 208.561974 
L 95.658243 209.841537 
L 98.386432 209.178222 
L 101.114622 209.901661 
L 103.842811 210.104471 
L 106.571001 208.281997 
L 109.29919 210.102594 
L 112.02738 210.104471 
L 114.755569 210.104471 
L 117.483759 207.604257 
L 120.211948 210.104471 
L 122.940138 208.301543 
L 125.668327 210.054306 
L 128.396516 210.104471 
L 131.124706 209.34067 
L 133.852895 209.843648 
L 136.581085 210.104471 
L 139.309274 210.082266 
L 142.037464 209.54303 
L 144.765653 208.839352 
L 147.493843 209.659759 
L 150.222032 207.599605 
L 152.950222 209.325052 
L 155.678411 208.710642 
L 158.4066 205.786386 
L 161.13479 205.17652 
L 163.862979 203.24021 
L 166.591169 199.550463 
L 169.319358 196.870934 
L 172.047548 193.28525 
L 174.775737 184.439099 
L 177.503927 180.133964 
L 180.232116 175.697479 
L 182.960306 174.701725 
L 185.688495 170.440374 
L 188.416684 166.509272 
L 191.144874 151.489774 
L 193.873063 147.246561 
L 196.601253 146.793718 
L 199.329442 146.235795 
L 202.057632 146.88879 
L 204.785821 146.516007 
L 207.514011 144.97484 
L 210.2422 146.048153 
L 212.97039 144.887274 
L 215.698579 144.912293 
L 218.426769 145.210018 
L 221.154958 145.395159 
L 223.883147 144.777191 
L 226.611337 144.446941 
L 229.339526 144.501982 
L 232.067716 144.299329 
L 234.795905 143.98409 
L 237.524095 144.532005 
L 240.252284 144.294325 
L 242.980474 144.904787 
L 245.708663 145.179996 
L 248.436853 145.367638 
L 251.165042 145.059905 
L 253.893231 145.850503 
L 256.621421 144.792202 
L 259.34961 146.045651 
L 262.0778 145.765439 
L 264.805989 146.903801 
L 267.534179 149.382553 
L 270.262368 147.710662 
L 272.990558 148.155999 
L 275.718747 152.070213 
L 278.446937 166.134613 
L 281.175126 170.30402 
L 283.903316 173.320054 
L 286.631505 179.056273 
L 289.359694 180.213399 
L 292.087884 187.895153 
L 294.816073 195.237901 
L 297.544263 200.272885 
L 300.272452 199.835132 
L 303.000642 201.940163 
L 305.728831 203.634493 
L 308.457021 205.695351 
L 311.18521 205.32593 
L 313.9134 205.988385 
L 316.641589 209.683449 
L 319.369778 210.044034 
L 322.097968 210.020188 
L 324.826157 210.104471 
L 327.554347 210.104471 
L 330.282536 208.215697 
L 333.010726 209.94044 
L 335.738915 209.671565 
L 338.467105 210.104471 
L 341.195294 210.104471 
L 343.923484 210.104471 
L 346.651673 209.606515 
L 349.379862 210.104471 
L 352.108052 210.104471 
L 354.836241 210.104471 
L 357.564431 210.104471 
L 360.29262 210.104471 
L 363.02081 209.794392 
L 365.748999 210.104471 
L 368.477189 207.743777 
L 371.205378 208.612403 
L 373.933568 208.048304 
L 376.661757 208.337195 
L 379.389947 208.121876 
L 382.118136 208.076451 
L 384.846325 210.104471 
L 387.574515 208.811812 
L 390.302704 209.086395 
L 393.030894 208.237432 
L 395.759083 207.793971 
L 398.487273 209.24937 
" clip-path="url(#pf7bd99bf13)" style="fill: none; stroke: #00bf00; stroke-width: 1.5; stroke-linecap: square"/>
   </g>
   <g id="line2d_32">
    <path d="M 73.832727 210.104471 
L 76.560917 210.104471 
L 79.289106 208.891316 
L 82.017296 209.219973 
L 84.745485 209.677428 
L 87.473675 209.810654 
L 90.201864 210.104471 
L 92.930053 208.561974 
L 95.658243 209.841537 
L 98.386432 209.320048 
L 101.114622 209.901661 
L 103.842811 210.049018 
L 106.571001 208.281997 
L 109.29919 210.059749 
L 112.02738 210.104471 
L 114.755569 210.104471 
L 117.483759 207.604257 
L 120.211948 210.104471 
L 122.940138 208.49157 
L 125.668327 209.995316 
L 128.396516 210.104471 
L 131.124706 209.647953 
L 133.852895 209.45195 
L 136.581085 210.104471 
L 139.309274 208.105379 
L 142.037464 209.214265 
L 144.765653 209.427083 
L 147.493843 208.625616 
L 150.222032 208.905359 
L 152.950222 209.086278 
L 155.678411 208.43386 
L 158.4066 205.727875 
L 161.13479 203.975298 
L 163.862979 206.099094 
L 166.591169 201.770425 
L 169.319358 196.720899 
L 172.047548 193.33521 
L 174.775737 188.655416 
L 177.503927 178.594048 
L 180.232116 176.739206 
L 182.960306 171.819856 
L 185.688495 162.306715 
L 188.416684 146.75744 
L 191.144874 144.45257 
L 193.873063 142.770671 
L 196.601253 142.585531 
L 199.329442 140.20623 
L 202.057632 140.330073 
L 204.785821 139.022833 
L 207.514011 140.784167 
L 210.2422 142.277798 
L 212.97039 142.90077 
L 215.698579 142.065137 
L 218.426769 140.719118 
L 221.154958 140.418891 
L 223.883147 138.951529 
L 226.611337 139.866597 
L 229.339526 140.039854 
L 232.067716 140.406381 
L 234.795905 140.639057 
L 237.524095 140.271279 
L 240.252284 140.442033 
L 242.980474 142.629002 
L 245.708663 140.266744 
L 248.436853 139.258637 
L 251.165042 139.99607 
L 253.893231 141.10441 
L 256.621421 141.727381 
L 259.34961 142.578025 
L 262.0778 140.614038 
L 264.805989 140.557746 
L 267.534179 140.363849 
L 270.262368 139.860968 
L 272.990558 140.72162 
L 275.718747 141.772415 
L 278.446937 139.825942 
L 281.175126 140.066123 
L 283.903316 139.979183 
L 286.631505 142.834157 
L 289.359694 141.99743 
L 292.087884 143.041501 
L 294.816073 143.117184 
L 297.544263 143.33735 
L 300.272452 141.801187 
L 303.000642 142.289839 
L 305.728831 141.881404 
L 308.457021 139.233618 
L 311.18521 139.712027 
L 313.9134 140.109907 
L 316.641589 142.141445 
L 319.369778 144.292605 
L 322.097968 145.286795 
L 324.826157 148.684524 
L 327.554347 145.139965 
L 330.282536 146.28208 
L 333.010726 148.222299 
L 335.738915 152.819531 
L 338.467105 153.524439 
L 341.195294 173.200589 
L 343.923484 180.124113 
L 346.651673 182.520146 
L 349.379862 194.651988 
L 352.108052 196.982581 
L 354.836241 202.061036 
L 357.564431 203.333015 
L 360.29262 204.249334 
L 363.02081 205.305837 
L 365.748999 206.527231 
L 368.477189 206.380088 
L 371.205378 207.630644 
L 373.933568 207.388224 
L 376.661757 208.667083 
L 379.389947 208.227972 
L 382.118136 208.708335 
L 384.846325 210.044347 
L 387.574515 207.838067 
L 390.302704 208.954537 
L 393.030894 208.0838 
L 395.759083 207.908159 
L 398.487273 209.285765 
" clip-path="url(#pf7bd99bf13)" style="fill: none; stroke: #00bf00; stroke-width: 2; stroke-linecap: square"/>
   </g>
   <g id="patch_9">
    <path d="M 57.6 213.662118 
L 57.6 135.393882 
" style="fill: none; stroke: #000000; stroke-width: 0.8; stroke-linejoin: miter; stroke-linecap: square"/>
   </g>
   <g id="patch_10">
    <path d="M 414.72 213.662118 
L 414.72 135.393882 
" style="fill: none; stroke: #000000; stroke-width: 0.8; stroke-linejoin: miter; stroke-linecap: square"/>
   </g>
   <g id="patch_11">
    <path d="M 57.6 213.662118 
L 414.72 213.662118 
" style="fill: none; stroke: #000000; stroke-width: 0.8; stroke-linejoin: miter; stroke-linecap: square"/>
   </g>
   <g id="patch_12">
    <path d="M 57.6 135.393882 
L 414.72 135.393882 
" style="fill: none; stroke: #000000; stroke-width: 0.8; stroke-linejoin: miter; stroke-linecap: square"/>
   </g>
  </g>
  <g id="axes_3">
   <g id="patch_13">
    <path d="M 57.6 307.584 
L 414.72 307.584 
L 414.72 229.315765 
L 57.6 229.315765 
z
" style="fill: #ffffff"/>
   </g>
   <g id="matplotlib.axis_5">
    <g id="xtick_15">
     <g id="line2d_33">
      <g>
       <use xlink:href="#m341d9d55f6" x="73.832727" y="307.584" style="stroke: #000000; stroke-width: 0.8"/>
      </g>
     </g>
     <g id="text_25">
      <!-- 0 -->
      <g transform="translate(70.651477 322.182437)scale(0.1 -0.1)">
       <use xlink:href="#DejaVuSans-30"/>
      </g>
     </g>
    </g>
    <g id="xtick_16">
     <g id="line2d_34">
      <g>
       <use xlink:href="#m341d9d55f6" x="128.396516" y="307.584" style="stroke: #000000; stroke-width: 0.8"/>
      </g>
     </g>
     <g id="text_26">
      <!-- 20 -->
      <g transform="translate(122.034016 322.182437)scale(0.1 -0.1)">
       <use xlink:href="#DejaVuSans-32"/>
       <use xlink:href="#DejaVuSans-30" x="63.623047"/>
      </g>
     </g>
    </g>
    <g id="xtick_17">
     <g id="line2d_35">
      <g>
       <use xlink:href="#m341d9d55f6" x="182.960306" y="307.584" style="stroke: #000000; stroke-width: 0.8"/>
      </g>
     </g>
     <g id="text_27">
      <!-- 40 -->
      <g transform="translate(176.597806 322.182437)scale(0.1 -0.1)">
       <use xlink:href="#DejaVuSans-34"/>
       <use xlink:href="#DejaVuSans-30" x="63.623047"/>
      </g>
     </g>
    </g>
    <g id="xtick_18">
     <g id="line2d_36">
      <g>
       <use xlink:href="#m341d9d55f6" x="237.524095" y="307.584" style="stroke: #000000; stroke-width: 0.8"/>
      </g>
     </g>
     <g id="text_28">
      <!-- 60 -->
      <g transform="translate(231.161595 322.182437)scale(0.1 -0.1)">
       <use xlink:href="#DejaVuSans-36"/>
       <use xlink:href="#DejaVuSans-30" x="63.623047"/>
      </g>
     </g>
    </g>
    <g id="xtick_19">
     <g id="line2d_37">
      <g>
       <use xlink:href="#m341d9d55f6" x="292.087884" y="307.584" style="stroke: #000000; stroke-width: 0.8"/>
      </g>
     </g>
     <g id="text_29">
      <!-- 80 -->
      <g transform="translate(285.725384 322.182437)scale(0.1 -0.1)">
       <use xlink:href="#DejaVuSans-38"/>
       <use xlink:href="#DejaVuSans-30" x="63.623047"/>
      </g>
     </g>
    </g>
    <g id="xtick_20">
     <g id="line2d_38">
      <g>
       <use xlink:href="#m341d9d55f6" x="346.651673" y="307.584" style="stroke: #000000; stroke-width: 0.8"/>
      </g>
     </g>
     <g id="text_30">
      <!-- 100 -->
      <g transform="translate(337.107923 322.182437)scale(0.1 -0.1)">
       <use xlink:href="#DejaVuSans-31"/>
       <use xlink:href="#DejaVuSans-30" x="63.623047"/>
       <use xlink:href="#DejaVuSans-30" x="127.246094"/>
      </g>
     </g>
    </g>
    <g id="xtick_21">
     <g id="line2d_39">
      <g>
       <use xlink:href="#m341d9d55f6" x="401.215462" y="307.584" style="stroke: #000000; stroke-width: 0.8"/>
      </g>
     </g>
     <g id="text_31">
      <!-- 120 -->
      <g transform="translate(391.671712 322.182437)scale(0.1 -0.1)">
       <use xlink:href="#DejaVuSans-31"/>
       <use xlink:href="#DejaVuSans-32" x="63.623047"/>
       <use xlink:href="#DejaVuSans-30" x="127.246094"/>
      </g>
     </g>
    </g>
   </g>
   <g id="matplotlib.axis_6">
    <g id="ytick_7">
     <g id="line2d_40">
      <g>
       <use xlink:href="#mc2789b67ee" x="57.6" y="304.026353" style="stroke: #000000; stroke-width: 0.8"/>
      </g>
     </g>
     <g id="text_32">
      <!-- 0.0 -->
      <g transform="translate(34.696875 307.825572)scale(0.1 -0.1)">
       <use xlink:href="#DejaVuSans-30"/>
       <use xlink:href="#DejaVuSans-2e" x="63.623047"/>
       <use xlink:href="#DejaVuSans-30" x="95.410156"/>
      </g>
     </g>
    </g>
    <g id="ytick_8">
     <g id="line2d_41">
      <g>
       <use xlink:href="#mc2789b67ee" x="57.6" y="268.449882" style="stroke: #000000; stroke-width: 0.8"/>
      </g>
     </g>
     <g id="text_33">
      <!-- 0.5 -->
      <g transform="translate(34.696875 272.249101)scale(0.1 -0.1)">
       <use xlink:href="#DejaVuSans-30"/>
       <use xlink:href="#DejaVuSans-2e" x="63.623047"/>
       <use xlink:href="#DejaVuSans-35" x="95.410156"/>
      </g>
     </g>
    </g>
    <g id="ytick_9">
     <g id="line2d_42">
      <g>
       <use xlink:href="#mc2789b67ee" x="57.6" y="232.873412" style="stroke: #000000; stroke-width: 0.8"/>
      </g>
     </g>
     <g id="text_34">
      <!-- 1.0 -->
      <g transform="translate(34.696875 236.672631)scale(0.1 -0.1)">
       <use xlink:href="#DejaVuSans-31"/>
       <use xlink:href="#DejaVuSans-2e" x="63.623047"/>
       <use xlink:href="#DejaVuSans-30" x="95.410156"/>
      </g>
     </g>
    </g>
   </g>
   <g id="line2d_43">
    <path d="M 73.832727 304.024855 
L 76.560917 303.957882 
L 79.289106 303.888699 
L 82.017296 304.026353 
L 84.745485 303.613791 
L 87.473675 303.831601 
L 90.201864 304.026353 
L 92.930053 304.026127 
L 95.658243 303.906564 
L 98.386432 303.632682 
L 101.114622 303.896726 
L 103.842811 303.737336 
L 106.571001 303.980561 
L 109.29919 304.026353 
L 112.02738 304.026353 
L 114.755569 303.989756 
L 117.483759 303.870343 
L 120.211948 303.8423 
L 122.940138 303.906564 
L 125.668327 303.907148 
L 128.396516 303.873754 
L 131.124706 303.997467 
L 133.852895 303.770339 
L 136.581085 303.910309 
L 139.309274 303.975008 
L 142.037464 303.901645 
L 144.765653 303.991056 
L 147.493843 303.98998 
L 150.222032 303.997047 
L 152.950222 303.905653 
L 155.678411 304.007952 
L 158.4066 304.019284 
L 161.13479 303.989552 
L 163.862979 303.96622 
L 166.591169 303.979265 
L 169.319358 304.019284 
L 172.047548 303.965804 
L 174.775737 303.962373 
L 177.503927 303.987427 
L 180.232116 304.013938 
L 182.960306 303.9716 
L 185.688495 303.70042 
L 188.416684 303.591138 
L 191.144874 303.366611 
L 193.873063 303.357205 
L 196.601253 302.996812 
L 199.329442 303.177433 
L 202.057632 303.186838 
L 204.785821 302.782558 
L 207.514011 302.781057 
L 210.2422 302.514873 
L 212.97039 299.588741 
L 215.698579 298.385406 
L 218.426769 302.66885 
L 221.154958 302.492465 
L 223.883147 302.534968 
L 226.611337 302.388852 
L 229.339526 302.545832 
L 232.067716 302.556589 
L 234.795905 302.624624 
L 237.524095 302.420157 
L 240.252284 302.890224 
L 242.980474 302.472385 
L 245.708663 302.7382 
L 248.436853 302.677811 
L 251.165042 299.490526 
L 253.893231 299.42406 
L 256.621421 298.445337 
L 259.34961 302.65689 
L 262.0778 302.542473 
L 264.805989 302.633128 
L 267.534179 302.662974 
L 270.262368 302.361328 
L 272.990558 302.490552 
L 275.718747 302.360206 
L 278.446937 302.542537 
L 281.175126 302.728015 
L 283.903316 302.793355 
L 286.631505 302.761034 
L 289.359694 303.143869 
L 292.087884 303.288205 
L 294.816073 303.329025 
L 297.544263 303.309779 
L 300.272452 303.516122 
L 303.000642 303.400054 
L 305.728831 303.595264 
L 308.457021 303.618151 
L 311.18521 303.811067 
L 313.9134 303.737843 
L 316.641589 303.88336 
L 319.369778 303.797351 
L 322.097968 303.625239 
L 324.826157 303.818749 
L 327.554347 303.763344 
L 330.282536 303.967695 
L 333.010726 304.010951 
L 335.738915 304.004943 
L 338.467105 303.918537 
L 341.195294 303.884297 
L 343.923484 303.799525 
L 346.651673 303.60439 
L 349.379862 303.768768 
L 352.108052 303.94741 
L 354.836241 303.738313 
L 357.564431 303.765318 
L 360.29262 303.736556 
L 363.02081 303.825521 
L 365.748999 303.80808 
L 368.477189 303.761003 
L 371.205378 303.680909 
L 373.933568 303.821549 
L 376.661757 303.799738 
L 379.389947 303.791254 
L 382.118136 303.849863 
L 384.846325 303.870191 
L 387.574515 303.97435 
L 390.302704 303.861846 
L 393.030894 304.026353 
L 395.759083 303.873108 
L 398.487273 304.01137 
" clip-path="url(#pb6cfe21ae4)" style="fill: none; stroke: #ed0000; stroke-width: 0.5; stroke-linecap: square"/>
   </g>
   <g id="line2d_44">
    <path d="M 73.832727 304.026353 
L 76.560917 303.987624 
L 79.289106 303.677126 
L 82.017296 304.026353 
L 84.745485 303.904792 
L 87.473675 303.840586 
L 90.201864 304.026353 
L 92.930053 303.866859 
L 95.658243 304.026353 
L 98.386432 303.904792 
L 101.114622 304.026353 
L 103.842811 303.860277 
L 106.571001 303.87033 
L 109.29919 304.026353 
L 112.02738 304.026353 
L 114.755569 304.026353 
L 117.483759 303.969874 
L 120.211948 303.896612 
L 122.940138 303.905653 
L 125.668327 303.904742 
L 128.396516 303.887671 
L 131.124706 303.938158 
L 133.852895 303.897313 
L 136.581085 303.910309 
L 139.309274 304.026353 
L 142.037464 303.871689 
L 144.765653 304.015013 
L 147.493843 303.844239 
L 150.222032 303.9904 
L 152.950222 303.911434 
L 155.678411 304.014374 
L 158.4066 303.963435 
L 161.13479 303.845522 
L 163.862979 303.914876 
L 166.591169 303.697417 
L 169.319358 304.018428 
L 172.047548 304.026353 
L 174.775737 303.8113 
L 177.503927 304.005587 
L 180.232116 303.842273 
L 182.960306 303.797529 
L 185.688495 303.490919 
L 188.416684 303.227193 
L 191.144874 303.19792 
L 193.873063 298.698482 
L 196.601253 295.765224 
L 199.329442 302.539487 
L 202.057632 287.808753 
L 204.785821 284.465899 
L 207.514011 279.590195 
L 210.2422 279.282499 
L 212.97039 279.297298 
L 215.698579 278.054842 
L 218.426769 278.849846 
L 221.154958 279.285777 
L 223.883147 279.075 
L 226.611337 279.008023 
L 229.339526 279.442681 
L 232.067716 281.48069 
L 234.795905 281.436776 
L 237.524095 281.417697 
L 240.252284 281.951834 
L 242.980474 279.316622 
L 245.708663 278.964384 
L 248.436853 279.036114 
L 251.165042 278.968965 
L 253.893231 278.954652 
L 256.621421 278.983442 
L 259.34961 278.835812 
L 262.0778 279.004762 
L 264.805989 279.431375 
L 267.534179 279.262991 
L 270.262368 280.082938 
L 272.990558 287.397409 
L 275.718747 287.723641 
L 278.446937 288.449758 
L 281.175126 288.405421 
L 283.903316 288.310502 
L 286.631505 295.677004 
L 289.359694 295.832316 
L 292.087884 302.306287 
L 294.816073 303.096877 
L 297.544263 302.605542 
L 300.272452 303.010789 
L 303.000642 302.987638 
L 305.728831 303.406773 
L 308.457021 303.472807 
L 311.18521 303.515478 
L 313.9134 303.632037 
L 316.641589 303.79949 
L 319.369778 303.780166 
L 322.097968 303.693162 
L 324.826157 303.879266 
L 327.554347 303.752577 
L 330.282536 303.780271 
L 333.010726 303.811306 
L 335.738915 303.788549 
L 338.467105 303.596857 
L 341.195294 303.863953 
L 343.923484 303.753093 
L 346.651673 303.779162 
L 349.379862 303.603288 
L 352.108052 303.823382 
L 354.836241 303.522867 
L 357.564431 303.767861 
L 360.29262 303.766338 
L 363.02081 303.826885 
L 365.748999 303.800181 
L 368.477189 303.607711 
L 371.205378 303.771646 
L 373.933568 303.842536 
L 376.661757 303.664666 
L 379.389947 303.657815 
L 382.118136 303.881384 
L 384.846325 303.794134 
L 387.574515 303.95403 
L 390.302704 303.860344 
L 393.030894 304.012006 
L 395.759083 304.026353 
L 398.487273 304.026353 
" clip-path="url(#pb6cfe21ae4)" style="fill: none; stroke: #ed0000; stroke-linecap: square"/>
   </g>
   <g id="line2d_45">
    <path d="M 73.832727 304.026353 
L 76.560917 303.986768 
L 79.289106 303.677126 
L 82.017296 304.026353 
L 84.745485 303.904792 
L 87.473675 303.840586 
L 90.201864 304.026353 
L 92.930053 303.990179 
L 95.658243 304.026353 
L 98.386432 303.904792 
L 101.114622 304.026353 
L 103.842811 303.860277 
L 106.571001 303.87033 
L 109.29919 304.026353 
L 112.02738 304.026353 
L 114.755569 304.026353 
L 117.483759 303.969874 
L 120.211948 303.896612 
L 122.940138 303.905653 
L 125.668327 303.902172 
L 128.396516 303.887671 
L 131.124706 303.914198 
L 133.852895 304.026141 
L 136.581085 303.909725 
L 139.309274 304.005605 
L 142.037464 304.014374 
L 144.765653 304.018229 
L 147.493843 303.903313 
L 150.222032 303.996597 
L 152.950222 304.000238 
L 155.678411 303.997465 
L 158.4066 303.855565 
L 161.13479 303.894955 
L 163.862979 303.989317 
L 166.591169 303.888091 
L 169.319358 303.865784 
L 172.047548 303.889743 
L 174.775737 303.810969 
L 177.503927 303.516645 
L 180.232116 303.633718 
L 182.960306 303.709334 
L 185.688495 300.439669 
L 188.416684 296.460381 
L 191.144874 303.270405 
L 193.873063 287.675314 
L 196.601253 279.238934 
L 199.329442 270.478185 
L 202.057632 269.864225 
L 204.785821 255.3827 
L 207.514011 262.354264 
L 210.2422 254.946879 
L 212.97039 247.976344 
L 215.698579 251.065239 
L 218.426769 251.259335 
L 221.154958 247.763072 
L 223.883147 254.965658 
L 226.611337 262.28435 
L 229.339526 262.0794 
L 232.067716 262.243097 
L 234.795905 262.595222 
L 237.524095 262.559205 
L 240.252284 262.321209 
L 242.980474 262.837455 
L 245.708663 262.56375 
L 248.436853 255.031262 
L 251.165042 254.896247 
L 253.893231 254.526091 
L 256.621421 250.34245 
L 259.34961 247.415655 
L 262.0778 254.424882 
L 264.805989 255.101343 
L 267.534179 262.226574 
L 270.262368 262.420857 
L 272.990558 262.901519 
L 275.718747 266.947559 
L 278.446937 271.17526 
L 281.175126 271.451923 
L 283.903316 299.933193 
L 286.631505 279.886811 
L 289.359694 287.728136 
L 292.087884 288.670585 
L 294.816073 302.96912 
L 297.544263 295.844304 
L 300.272452 303.555514 
L 303.000642 303.183036 
L 305.728831 303.2379 
L 308.457021 302.945545 
L 311.18521 303.22635 
L 313.9134 303.248568 
L 316.641589 303.298523 
L 319.369778 303.111824 
L 322.097968 303.345366 
L 324.826157 303.75643 
L 327.554347 303.826042 
L 330.282536 303.829459 
L 333.010726 304.026353 
L 335.738915 303.933412 
L 338.467105 303.967755 
L 341.195294 303.877105 
L 343.923484 303.741762 
L 346.651673 303.8402 
L 349.379862 303.619118 
L 352.108052 303.977791 
L 354.836241 303.597592 
L 357.564431 303.733686 
L 360.29262 303.645346 
L 363.02081 303.810597 
L 365.748999 303.791827 
L 368.477189 303.761012 
L 371.205378 303.78316 
L 373.933568 303.82021 
L 376.661757 303.970711 
L 379.389947 303.926215 
L 382.118136 303.905876 
L 384.846325 303.860296 
L 387.574515 303.979275 
L 390.302704 303.899277 
L 393.030894 303.992115 
L 395.759083 303.902659 
L 398.487273 304.019727 
" clip-path="url(#pb6cfe21ae4)" style="fill: none; stroke: #ed0000; stroke-width: 1.5; stroke-linecap: square"/>
   </g>
   <g id="line2d_46">
    <path d="M 73.832727 304.026353 
L 76.560917 304.000464 
L 79.289106 303.677126 
L 82.017296 304.026353 
L 84.745485 303.904792 
L 87.473675 303.858782 
L 90.201864 304.026353 
L 92.930053 303.868568 
L 95.658243 304.026353 
L 98.386432 303.903995 
L 101.114622 304.026353 
L 103.842811 303.861188 
L 106.571001 303.87033 
L 109.29919 304.026353 
L 112.02738 304.026353 
L 114.755569 304.026353 
L 117.483759 303.988067 
L 120.211948 303.896612 
L 122.940138 303.89303 
L 125.668327 303.906237 
L 128.396516 303.990615 
L 131.124706 303.906564 
L 133.852895 303.878545 
L 136.581085 304.001959 
L 139.309274 304.004094 
L 142.037464 304.010309 
L 144.765653 304.006677 
L 147.493843 303.978403 
L 150.222032 303.978838 
L 152.950222 303.942237 
L 155.678411 303.964934 
L 158.4066 303.927028 
L 161.13479 303.64302 
L 163.862979 303.750725 
L 166.591169 303.624066 
L 169.319358 303.789438 
L 172.047548 303.655895 
L 174.775737 303.99443 
L 177.503927 303.7712 
L 180.232116 303.823858 
L 182.960306 303.86929 
L 185.688495 303.622637 
L 188.416684 303.624581 
L 191.144874 303.858185 
L 193.873063 303.342853 
L 196.601253 303.388834 
L 199.329442 303.554816 
L 202.057632 296.59094 
L 204.785821 285.000953 
L 207.514011 269.742358 
L 210.2422 251.424143 
L 212.97039 240.837767 
L 215.698579 236.855945 
L 218.426769 237.62018 
L 221.154958 239.360533 
L 223.883147 237.834029 
L 226.611337 240.597642 
L 229.339526 240.613667 
L 232.067716 240.627157 
L 234.795905 240.483513 
L 237.524095 238.293293 
L 240.252284 236.496018 
L 242.980474 236.778777 
L 245.708663 236.789853 
L 248.436853 237.617532 
L 251.165042 240.465887 
L 253.893231 240.208437 
L 256.621421 240.451002 
L 259.34961 240.393722 
L 262.0778 240.679636 
L 264.805989 240.54095 
L 267.534179 240.577788 
L 270.262368 240.43846 
L 272.990558 240.561507 
L 275.718747 237.802822 
L 278.446937 235.91152 
L 281.175126 234.369625 
L 283.903316 234.082978 
L 286.631505 233.308372 
L 289.359694 233.935044 
L 292.087884 232.873412 
L 294.816073 235.912981 
L 297.544263 236.931184 
L 300.272452 239.973862 
L 303.000642 243.029739 
L 305.728831 247.210539 
L 308.457021 247.265553 
L 311.18521 254.439449 
L 313.9134 255.071472 
L 316.641589 270.157151 
L 319.369778 271.319446 
L 322.097968 279.118528 
L 324.826157 279.886865 
L 327.554347 287.145282 
L 330.282536 288.205162 
L 333.010726 288.569405 
L 335.738915 296.299002 
L 338.467105 301.214964 
L 341.195294 302.457714 
L 343.923484 303.101732 
L 346.651673 303.071163 
L 349.379862 303.439353 
L 352.108052 303.576819 
L 354.836241 303.768086 
L 357.564431 303.398796 
L 360.29262 303.523032 
L 363.02081 303.730342 
L 365.748999 303.66222 
L 368.477189 303.772315 
L 371.205378 303.755253 
L 373.933568 303.843616 
L 376.661757 303.829496 
L 379.389947 303.753236 
L 382.118136 303.8476 
L 384.846325 303.828806 
L 387.574515 304.017167 
L 390.302704 303.873186 
L 393.030894 304.013293 
L 395.759083 304.026353 
L 398.487273 304.021448 
" clip-path="url(#pb6cfe21ae4)" style="fill: none; stroke: #ed0000; stroke-width: 2; stroke-linecap: square"/>
   </g>
   <g id="patch_14">
    <path d="M 57.6 307.584 
L 57.6 229.315765 
" style="fill: none; stroke: #000000; stroke-width: 0.8; stroke-linejoin: miter; stroke-linecap: square"/>
   </g>
   <g id="patch_15">
    <path d="M 414.72 307.584 
L 414.72 229.315765 
" style="fill: none; stroke: #000000; stroke-width: 0.8; stroke-linejoin: miter; stroke-linecap: square"/>
   </g>
   <g id="patch_16">
    <path d="M 57.6 307.584 
L 414.72 307.584 
" style="fill: none; stroke: #000000; stroke-width: 0.8; stroke-linejoin: miter; stroke-linecap: square"/>
   </g>
   <g id="patch_17">
    <path d="M 57.6 229.315765 
L 414.72 229.315765 
" style="fill: none; stroke: #000000; stroke-width: 0.8; stroke-linejoin: miter; stroke-linecap: square"/>
   </g>
  </g>
  <g id="text_35">
   <!-- NRE Predictions for expression strength level -->
   <g transform="translate(95.338125 16.030125)scale(0.12 -0.12)">
    <defs>
     <path id="DejaVuSans-4e" d="M 628 4666 
L 1478 4666 
L 3547 763 
L 3547 4666 
L 4159 4666 
L 4159 0 
L 3309 0 
L 1241 3903 
L 1241 0 
L 628 0 
L 628 4666 
z
" transform="scale(0.015625)"/>
     <path id="DejaVuSans-52" d="M 2841 2188 
Q 3044 2119 3236 1894 
Q 3428 1669 3622 1275 
L 4263 0 
L 3584 0 
L 2988 1197 
Q 2756 1666 2539 1819 
Q 2322 1972 1947 1972 
L 1259 1972 
L 1259 0 
L 628 0 
L 628 4666 
L 2053 4666 
Q 2853 4666 3247 4331 
Q 3641 3997 3641 3322 
Q 3641 2881 3436 2590 
Q 3231 2300 2841 2188 
z
M 1259 4147 
L 1259 2491 
L 2053 2491 
Q 2509 2491 2742 2702 
Q 2975 2913 2975 3322 
Q 2975 3731 2742 3939 
Q 2509 4147 2053 4147 
L 1259 4147 
z
" transform="scale(0.015625)"/>
     <path id="DejaVuSans-45" d="M 628 4666 
L 3578 4666 
L 3578 4134 
L 1259 4134 
L 1259 2753 
L 3481 2753 
L 3481 2222 
L 1259 2222 
L 1259 531 
L 3634 531 
L 3634 0 
L 628 0 
L 628 4666 
z
" transform="scale(0.015625)"/>
     <path id="DejaVuSans-20" transform="scale(0.015625)"/>
     <path id="DejaVuSans-50" d="M 1259 4147 
L 1259 2394 
L 2053 2394 
Q 2494 2394 2734 2622 
Q 2975 2850 2975 3272 
Q 2975 3691 2734 3919 
Q 2494 4147 2053 4147 
L 1259 4147 
z
M 628 4666 
L 2053 4666 
Q 2838 4666 3239 4311 
Q 3641 3956 3641 3272 
Q 3641 2581 3239 2228 
Q 2838 1875 2053 1875 
L 1259 1875 
L 1259 0 
L 628 0 
L 628 4666 
z
" transform="scale(0.015625)"/>
     <path id="DejaVuSans-72" d="M 2631 2963 
Q 2534 3019 2420 3045 
Q 2306 3072 2169 3072 
Q 1681 3072 1420 2755 
Q 1159 2438 1159 1844 
L 1159 0 
L 581 0 
L 581 3500 
L 1159 3500 
L 1159 2956 
Q 1341 3275 1631 3429 
Q 1922 3584 2338 3584 
Q 2397 3584 2469 3576 
Q 2541 3569 2628 3553 
L 2631 2963 
z
" transform="scale(0.015625)"/>
     <path id="DejaVuSans-65" d="M 3597 1894 
L 3597 1613 
L 953 1613 
Q 991 1019 1311 708 
Q 1631 397 2203 397 
Q 2534 397 2845 478 
Q 3156 559 3463 722 
L 3463 178 
Q 3153 47 2828 -22 
Q 2503 -91 2169 -91 
Q 1331 -91 842 396 
Q 353 884 353 1716 
Q 353 2575 817 3079 
Q 1281 3584 2069 3584 
Q 2775 3584 3186 3129 
Q 3597 2675 3597 1894 
z
M 3022 2063 
Q 3016 2534 2758 2815 
Q 2500 3097 2075 3097 
Q 1594 3097 1305 2825 
Q 1016 2553 972 2059 
L 3022 2063 
z
" transform="scale(0.015625)"/>
     <path id="DejaVuSans-64" d="M 2906 2969 
L 2906 4863 
L 3481 4863 
L 3481 0 
L 2906 0 
L 2906 525 
Q 2725 213 2448 61 
Q 2172 -91 1784 -91 
Q 1150 -91 751 415 
Q 353 922 353 1747 
Q 353 2572 751 3078 
Q 1150 3584 1784 3584 
Q 2172 3584 2448 3432 
Q 2725 3281 2906 2969 
z
M 947 1747 
Q 947 1113 1208 752 
Q 1469 391 1925 391 
Q 2381 391 2643 752 
Q 2906 1113 2906 1747 
Q 2906 2381 2643 2742 
Q 2381 3103 1925 3103 
Q 1469 3103 1208 2742 
Q 947 2381 947 1747 
z
" transform="scale(0.015625)"/>
     <path id="DejaVuSans-69" d="M 603 3500 
L 1178 3500 
L 1178 0 
L 603 0 
L 603 3500 
z
M 603 4863 
L 1178 4863 
L 1178 4134 
L 603 4134 
L 603 4863 
z
" transform="scale(0.015625)"/>
     <path id="DejaVuSans-63" d="M 3122 3366 
L 3122 2828 
Q 2878 2963 2633 3030 
Q 2388 3097 2138 3097 
Q 1578 3097 1268 2742 
Q 959 2388 959 1747 
Q 959 1106 1268 751 
Q 1578 397 2138 397 
Q 2388 397 2633 464 
Q 2878 531 3122 666 
L 3122 134 
Q 2881 22 2623 -34 
Q 2366 -91 2075 -91 
Q 1284 -91 818 406 
Q 353 903 353 1747 
Q 353 2603 823 3093 
Q 1294 3584 2113 3584 
Q 2378 3584 2631 3529 
Q 2884 3475 3122 3366 
z
" transform="scale(0.015625)"/>
     <path id="DejaVuSans-74" d="M 1172 4494 
L 1172 3500 
L 2356 3500 
L 2356 3053 
L 1172 3053 
L 1172 1153 
Q 1172 725 1289 603 
Q 1406 481 1766 481 
L 2356 481 
L 2356 0 
L 1766 0 
Q 1100 0 847 248 
Q 594 497 594 1153 
L 594 3053 
L 172 3053 
L 172 3500 
L 594 3500 
L 594 4494 
L 1172 4494 
z
" transform="scale(0.015625)"/>
     <path id="DejaVuSans-6f" d="M 1959 3097 
Q 1497 3097 1228 2736 
Q 959 2375 959 1747 
Q 959 1119 1226 758 
Q 1494 397 1959 397 
Q 2419 397 2687 759 
Q 2956 1122 2956 1747 
Q 2956 2369 2687 2733 
Q 2419 3097 1959 3097 
z
M 1959 3584 
Q 2709 3584 3137 3096 
Q 3566 2609 3566 1747 
Q 3566 888 3137 398 
Q 2709 -91 1959 -91 
Q 1206 -91 779 398 
Q 353 888 353 1747 
Q 353 2609 779 3096 
Q 1206 3584 1959 3584 
z
" transform="scale(0.015625)"/>
     <path id="DejaVuSans-6e" d="M 3513 2113 
L 3513 0 
L 2938 0 
L 2938 2094 
Q 2938 2591 2744 2837 
Q 2550 3084 2163 3084 
Q 1697 3084 1428 2787 
Q 1159 2491 1159 1978 
L 1159 0 
L 581 0 
L 581 3500 
L 1159 3500 
L 1159 2956 
Q 1366 3272 1645 3428 
Q 1925 3584 2291 3584 
Q 2894 3584 3203 3211 
Q 3513 2838 3513 2113 
z
" transform="scale(0.015625)"/>
     <path id="DejaVuSans-73" d="M 2834 3397 
L 2834 2853 
Q 2591 2978 2328 3040 
Q 2066 3103 1784 3103 
Q 1356 3103 1142 2972 
Q 928 2841 928 2578 
Q 928 2378 1081 2264 
Q 1234 2150 1697 2047 
L 1894 2003 
Q 2506 1872 2764 1633 
Q 3022 1394 3022 966 
Q 3022 478 2636 193 
Q 2250 -91 1575 -91 
Q 1294 -91 989 -36 
Q 684 19 347 128 
L 347 722 
Q 666 556 975 473 
Q 1284 391 1588 391 
Q 1994 391 2212 530 
Q 2431 669 2431 922 
Q 2431 1156 2273 1281 
Q 2116 1406 1581 1522 
L 1381 1569 
Q 847 1681 609 1914 
Q 372 2147 372 2553 
Q 372 3047 722 3315 
Q 1072 3584 1716 3584 
Q 2034 3584 2315 3537 
Q 2597 3491 2834 3397 
z
" transform="scale(0.015625)"/>
     <path id="DejaVuSans-66" d="M 2375 4863 
L 2375 4384 
L 1825 4384 
Q 1516 4384 1395 4259 
Q 1275 4134 1275 3809 
L 1275 3500 
L 2222 3500 
L 2222 3053 
L 1275 3053 
L 1275 0 
L 697 0 
L 697 3053 
L 147 3053 
L 147 3500 
L 697 3500 
L 697 3744 
Q 697 4328 969 4595 
Q 1241 4863 1831 4863 
L 2375 4863 
z
" transform="scale(0.015625)"/>
     <path id="DejaVuSans-78" d="M 3513 3500 
L 2247 1797 
L 3578 0 
L 2900 0 
L 1881 1375 
L 863 0 
L 184 0 
L 1544 1831 
L 300 3500 
L 978 3500 
L 1906 2253 
L 2834 3500 
L 3513 3500 
z
" transform="scale(0.015625)"/>
     <path id="DejaVuSans-70" d="M 1159 525 
L 1159 -1331 
L 581 -1331 
L 581 3500 
L 1159 3500 
L 1159 2969 
Q 1341 3281 1617 3432 
Q 1894 3584 2278 3584 
Q 2916 3584 3314 3078 
Q 3713 2572 3713 1747 
Q 3713 922 3314 415 
Q 2916 -91 2278 -91 
Q 1894 -91 1617 61 
Q 1341 213 1159 525 
z
M 3116 1747 
Q 3116 2381 2855 2742 
Q 2594 3103 2138 3103 
Q 1681 3103 1420 2742 
Q 1159 2381 1159 1747 
Q 1159 1113 1420 752 
Q 1681 391 2138 391 
Q 2594 391 2855 752 
Q 3116 1113 3116 1747 
z
" transform="scale(0.015625)"/>
     <path id="DejaVuSans-67" d="M 2906 1791 
Q 2906 2416 2648 2759 
Q 2391 3103 1925 3103 
Q 1463 3103 1205 2759 
Q 947 2416 947 1791 
Q 947 1169 1205 825 
Q 1463 481 1925 481 
Q 2391 481 2648 825 
Q 2906 1169 2906 1791 
z
M 3481 434 
Q 3481 -459 3084 -895 
Q 2688 -1331 1869 -1331 
Q 1566 -1331 1297 -1286 
Q 1028 -1241 775 -1147 
L 775 -588 
Q 1028 -725 1275 -790 
Q 1522 -856 1778 -856 
Q 2344 -856 2625 -561 
Q 2906 -266 2906 331 
L 2906 616 
Q 2728 306 2450 153 
Q 2172 0 1784 0 
Q 1141 0 747 490 
Q 353 981 353 1791 
Q 353 2603 747 3093 
Q 1141 3584 1784 3584 
Q 2172 3584 2450 3431 
Q 2728 3278 2906 2969 
L 2906 3500 
L 3481 3500 
L 3481 434 
z
" transform="scale(0.015625)"/>
     <path id="DejaVuSans-68" d="M 3513 2113 
L 3513 0 
L 2938 0 
L 2938 2094 
Q 2938 2591 2744 2837 
Q 2550 3084 2163 3084 
Q 1697 3084 1428 2787 
Q 1159 2491 1159 1978 
L 1159 0 
L 581 0 
L 581 4863 
L 1159 4863 
L 1159 2956 
Q 1366 3272 1645 3428 
Q 1925 3584 2291 3584 
Q 2894 3584 3203 3211 
Q 3513 2838 3513 2113 
z
" transform="scale(0.015625)"/>
     <path id="DejaVuSans-6c" d="M 603 4863 
L 1178 4863 
L 1178 0 
L 603 0 
L 603 4863 
z
" transform="scale(0.015625)"/>
     <path id="DejaVuSans-76" d="M 191 3500 
L 800 3500 
L 1894 563 
L 2988 3500 
L 3597 3500 
L 2284 0 
L 1503 0 
L 191 3500 
z
" transform="scale(0.015625)"/>
    </defs>
    <use xlink:href="#DejaVuSans-4e"/>
    <use xlink:href="#DejaVuSans-52" x="74.804688"/>
    <use xlink:href="#DejaVuSans-45" x="144.287109"/>
    <use xlink:href="#DejaVuSans-20" x="207.470703"/>
    <use xlink:href="#DejaVuSans-50" x="239.257812"/>
    <use xlink:href="#DejaVuSans-72" x="297.810547"/>
    <use xlink:href="#DejaVuSans-65" x="336.673828"/>
    <use xlink:href="#DejaVuSans-64" x="398.197266"/>
    <use xlink:href="#DejaVuSans-69" x="461.673828"/>
    <use xlink:href="#DejaVuSans-63" x="489.457031"/>
    <use xlink:href="#DejaVuSans-74" x="544.4375"/>
    <use xlink:href="#DejaVuSans-69" x="583.646484"/>
    <use xlink:href="#DejaVuSans-6f" x="611.429688"/>
    <use xlink:href="#DejaVuSans-6e" x="672.611328"/>
    <use xlink:href="#DejaVuSans-73" x="735.990234"/>
    <use xlink:href="#DejaVuSans-20" x="788.089844"/>
    <use xlink:href="#DejaVuSans-66" x="819.876953"/>
    <use xlink:href="#DejaVuSans-6f" x="855.082031"/>
    <use xlink:href="#DejaVuSans-72" x="916.263672"/>
    <use xlink:href="#DejaVuSans-20" x="957.376953"/>
    <use xlink:href="#DejaVuSans-65" x="989.164062"/>
    <use xlink:href="#DejaVuSans-78" x="1048.9375"/>
    <use xlink:href="#DejaVuSans-70" x="1108.117188"/>
    <use xlink:href="#DejaVuSans-72" x="1171.59375"/>
    <use xlink:href="#DejaVuSans-65" x="1210.457031"/>
    <use xlink:href="#DejaVuSans-73" x="1271.980469"/>
    <use xlink:href="#DejaVuSans-73" x="1324.080078"/>
    <use xlink:href="#DejaVuSans-69" x="1376.179688"/>
    <use xlink:href="#DejaVuSans-6f" x="1403.962891"/>
    <use xlink:href="#DejaVuSans-6e" x="1465.144531"/>
    <use xlink:href="#DejaVuSans-20" x="1528.523438"/>
    <use xlink:href="#DejaVuSans-73" x="1560.310547"/>
    <use xlink:href="#DejaVuSans-74" x="1612.410156"/>
    <use xlink:href="#DejaVuSans-72" x="1651.619141"/>
    <use xlink:href="#DejaVuSans-65" x="1690.482422"/>
    <use xlink:href="#DejaVuSans-6e" x="1752.005859"/>
    <use xlink:href="#DejaVuSans-67" x="1815.384766"/>
    <use xlink:href="#DejaVuSans-74" x="1878.861328"/>
    <use xlink:href="#DejaVuSans-68" x="1918.070312"/>
    <use xlink:href="#DejaVuSans-20" x="1981.449219"/>
    <use xlink:href="#DejaVuSans-6c" x="2013.236328"/>
    <use xlink:href="#DejaVuSans-65" x="2041.019531"/>
    <use xlink:href="#DejaVuSans-76" x="2102.542969"/>
    <use xlink:href="#DejaVuSans-65" x="2161.722656"/>
    <use xlink:href="#DejaVuSans-6c" x="2223.246094"/>
   </g>
  </g>
 </g>
 <defs>
  <clipPath id="p04415ecd44">
   <rect x="57.6" y="41.472" width="357.12" height="78.268235"/>
  </clipPath>
  <clipPath id="pf7bd99bf13">
   <rect x="57.6" y="135.393882" width="357.12" height="78.268235"/>
  </clipPath>
  <clipPath id="pb6cfe21ae4">
   <rect x="57.6" y="229.315765" width="357.12" height="78.268235"/>
  </clipPath>
 </defs>
</svg>
