<?xml version="1.0" encoding="utf-8" standalone="no"?>
<!DOCTYPE svg PUBLIC "-//W3C//DTD SVG 1.1//EN"
  "http://www.w3.org/Graphics/SVG/1.1/DTD/svg11.dtd">
<svg xmlns:xlink="http://www.w3.org/1999/xlink" width="460.8pt" height="345.6pt" viewBox="0 0 460.8 345.6" xmlns="http://www.w3.org/2000/svg" version="1.1">
 <metadata>
  <rdf:RDF xmlns:dc="http://purl.org/dc/elements/1.1/" xmlns:cc="http://creativecommons.org/ns#" xmlns:rdf="http://www.w3.org/1999/02/22-rdf-syntax-ns#">
   <cc:Work>
    <dc:type rdf:resource="http://purl.org/dc/dcmitype/StillImage"/>
    <dc:date>2023-05-09T10:03:13.016976</dc:date>
    <dc:format>image/svg+xml</dc:format>
    <dc:creator>
     <cc:Agent>
      <dc:title>Matplotlib v3.5.2, https://matplotlib.org/</dc:title>
     </cc:Agent>
    </dc:creator>
   </cc:Work>
  </rdf:RDF>
 </metadata>
 <defs>
  <style type="text/css">*{stroke-linejoin: round; stroke-linecap: butt}</style>
 </defs>
 <g id="figure_1">
  <g id="patch_1">
   <path d="M 0 345.6 
L 460.8 345.6 
L 460.8 0 
L 0 0 
z
" style="fill: #ffffff"/>
  </g>
  <g id="axes_1">
   <g id="patch_2">
    <path d="M 57.6 119.740235 
L 414.72 119.740235 
L 414.72 41.472 
L 57.6 41.472 
z
" style="fill: #ffffff"/>
   </g>
   <g id="matplotlib.axis_1">
    <g id="xtick_1">
     <g id="line2d_1">
      <defs>
       <path id="mb27909c447" d="M 0 0 
L 0 3.5 
" style="stroke: #000000; stroke-width: 0.8"/>
      </defs>
      <g>
       <use xlink:href="#mb27909c447" x="73.832727" y="119.740235" style="stroke: #000000; stroke-width: 0.8"/>
      </g>
     </g>
     <g id="text_1">
      <!-- 0 -->
      <g transform="translate(70.651477 134.338673)scale(0.1 -0.1)">
       <defs>
        <path id="DejaVuSans-30" d="M 2034 4250 
Q 1547 4250 1301 3770 
Q 1056 3291 1056 2328 
Q 1056 1369 1301 889 
Q 1547 409 2034 409 
Q 2525 409 2770 889 
Q 3016 1369 3016 2328 
Q 3016 3291 2770 3770 
Q 2525 4250 2034 4250 
z
M 2034 4750 
Q 2819 4750 3233 4129 
Q 3647 3509 3647 2328 
Q 3647 1150 3233 529 
Q 2819 -91 2034 -91 
Q 1250 -91 836 529 
Q 422 1150 422 2328 
Q 422 3509 836 4129 
Q 1250 4750 2034 4750 
z
" transform="scale(0.015625)"/>
       </defs>
       <use xlink:href="#DejaVuSans-30"/>
      </g>
     </g>
    </g>
    <g id="xtick_2">
     <g id="line2d_2">
      <g>
       <use xlink:href="#mb27909c447" x="128.396516" y="119.740235" style="stroke: #000000; stroke-width: 0.8"/>
      </g>
     </g>
     <g id="text_2">
      <!-- 20 -->
      <g transform="translate(122.034016 134.338673)scale(0.1 -0.1)">
       <defs>
        <path id="DejaVuSans-32" d="M 1228 531 
L 3431 531 
L 3431 0 
L 469 0 
L 469 531 
Q 828 903 1448 1529 
Q 2069 2156 2228 2338 
Q 2531 2678 2651 2914 
Q 2772 3150 2772 3378 
Q 2772 3750 2511 3984 
Q 2250 4219 1831 4219 
Q 1534 4219 1204 4116 
Q 875 4013 500 3803 
L 500 4441 
Q 881 4594 1212 4672 
Q 1544 4750 1819 4750 
Q 2544 4750 2975 4387 
Q 3406 4025 3406 3419 
Q 3406 3131 3298 2873 
Q 3191 2616 2906 2266 
Q 2828 2175 2409 1742 
Q 1991 1309 1228 531 
z
" transform="scale(0.015625)"/>
       </defs>
       <use xlink:href="#DejaVuSans-32"/>
       <use xlink:href="#DejaVuSans-30" x="63.623047"/>
      </g>
     </g>
    </g>
    <g id="xtick_3">
     <g id="line2d_3">
      <g>
       <use xlink:href="#mb27909c447" x="182.960306" y="119.740235" style="stroke: #000000; stroke-width: 0.8"/>
      </g>
     </g>
     <g id="text_3">
      <!-- 40 -->
      <g transform="translate(176.597806 134.338673)scale(0.1 -0.1)">
       <defs>
        <path id="DejaVuSans-34" d="M 2419 4116 
L 825 1625 
L 2419 1625 
L 2419 4116 
z
M 2253 4666 
L 3047 4666 
L 3047 1625 
L 3713 1625 
L 3713 1100 
L 3047 1100 
L 3047 0 
L 2419 0 
L 2419 1100 
L 313 1100 
L 313 1709 
L 2253 4666 
z
" transform="scale(0.015625)"/>
       </defs>
       <use xlink:href="#DejaVuSans-34"/>
       <use xlink:href="#DejaVuSans-30" x="63.623047"/>
      </g>
     </g>
    </g>
    <g id="xtick_4">
     <g id="line2d_4">
      <g>
       <use xlink:href="#mb27909c447" x="237.524095" y="119.740235" style="stroke: #000000; stroke-width: 0.8"/>
      </g>
     </g>
     <g id="text_4">
      <!-- 60 -->
      <g transform="translate(231.161595 134.338673)scale(0.1 -0.1)">
       <defs>
        <path id="DejaVuSans-36" d="M 2113 2584 
Q 1688 2584 1439 2293 
Q 1191 2003 1191 1497 
Q 1191 994 1439 701 
Q 1688 409 2113 409 
Q 2538 409 2786 701 
Q 3034 994 3034 1497 
Q 3034 2003 2786 2293 
Q 2538 2584 2113 2584 
z
M 3366 4563 
L 3366 3988 
Q 3128 4100 2886 4159 
Q 2644 4219 2406 4219 
Q 1781 4219 1451 3797 
Q 1122 3375 1075 2522 
Q 1259 2794 1537 2939 
Q 1816 3084 2150 3084 
Q 2853 3084 3261 2657 
Q 3669 2231 3669 1497 
Q 3669 778 3244 343 
Q 2819 -91 2113 -91 
Q 1303 -91 875 529 
Q 447 1150 447 2328 
Q 447 3434 972 4092 
Q 1497 4750 2381 4750 
Q 2619 4750 2861 4703 
Q 3103 4656 3366 4563 
z
" transform="scale(0.015625)"/>
       </defs>
       <use xlink:href="#DejaVuSans-36"/>
       <use xlink:href="#DejaVuSans-30" x="63.623047"/>
      </g>
     </g>
    </g>
    <g id="xtick_5">
     <g id="line2d_5">
      <g>
       <use xlink:href="#mb27909c447" x="292.087884" y="119.740235" style="stroke: #000000; stroke-width: 0.8"/>
      </g>
     </g>
     <g id="text_5">
      <!-- 80 -->
      <g transform="translate(285.725384 134.338673)scale(0.1 -0.1)">
       <defs>
        <path id="DejaVuSans-38" d="M 2034 2216 
Q 1584 2216 1326 1975 
Q 1069 1734 1069 1313 
Q 1069 891 1326 650 
Q 1584 409 2034 409 
Q 2484 409 2743 651 
Q 3003 894 3003 1313 
Q 3003 1734 2745 1975 
Q 2488 2216 2034 2216 
z
M 1403 2484 
Q 997 2584 770 2862 
Q 544 3141 544 3541 
Q 544 4100 942 4425 
Q 1341 4750 2034 4750 
Q 2731 4750 3128 4425 
Q 3525 4100 3525 3541 
Q 3525 3141 3298 2862 
Q 3072 2584 2669 2484 
Q 3125 2378 3379 2068 
Q 3634 1759 3634 1313 
Q 3634 634 3220 271 
Q 2806 -91 2034 -91 
Q 1263 -91 848 271 
Q 434 634 434 1313 
Q 434 1759 690 2068 
Q 947 2378 1403 2484 
z
M 1172 3481 
Q 1172 3119 1398 2916 
Q 1625 2713 2034 2713 
Q 2441 2713 2670 2916 
Q 2900 3119 2900 3481 
Q 2900 3844 2670 4047 
Q 2441 4250 2034 4250 
Q 1625 4250 1398 4047 
Q 1172 3844 1172 3481 
z
" transform="scale(0.015625)"/>
       </defs>
       <use xlink:href="#DejaVuSans-38"/>
       <use xlink:href="#DejaVuSans-30" x="63.623047"/>
      </g>
     </g>
    </g>
    <g id="xtick_6">
     <g id="line2d_6">
      <g>
       <use xlink:href="#mb27909c447" x="346.651673" y="119.740235" style="stroke: #000000; stroke-width: 0.8"/>
      </g>
     </g>
     <g id="text_6">
      <!-- 100 -->
      <g transform="translate(337.107923 134.338673)scale(0.1 -0.1)">
       <defs>
        <path id="DejaVuSans-31" d="M 794 531 
L 1825 531 
L 1825 4091 
L 703 3866 
L 703 4441 
L 1819 4666 
L 2450 4666 
L 2450 531 
L 3481 531 
L 3481 0 
L 794 0 
L 794 531 
z
" transform="scale(0.015625)"/>
       </defs>
       <use xlink:href="#DejaVuSans-31"/>
       <use xlink:href="#DejaVuSans-30" x="63.623047"/>
       <use xlink:href="#DejaVuSans-30" x="127.246094"/>
      </g>
     </g>
    </g>
    <g id="xtick_7">
     <g id="line2d_7">
      <g>
       <use xlink:href="#mb27909c447" x="401.215462" y="119.740235" style="stroke: #000000; stroke-width: 0.8"/>
      </g>
     </g>
     <g id="text_7">
      <!-- 120 -->
      <g transform="translate(391.671712 134.338673)scale(0.1 -0.1)">
       <use xlink:href="#DejaVuSans-31"/>
       <use xlink:href="#DejaVuSans-32" x="63.623047"/>
       <use xlink:href="#DejaVuSans-30" x="127.246094"/>
      </g>
     </g>
    </g>
   </g>
   <g id="matplotlib.axis_2">
    <g id="ytick_1">
     <g id="line2d_8">
      <defs>
       <path id="m9865f1fc6c" d="M 0 0 
L -3.5 0 
" style="stroke: #000000; stroke-width: 0.8"/>
      </defs>
      <g>
       <use xlink:href="#m9865f1fc6c" x="57.6" y="116.182588" style="stroke: #000000; stroke-width: 0.8"/>
      </g>
     </g>
     <g id="text_8">
      <!-- 0.0 -->
      <g transform="translate(34.696875 119.981807)scale(0.1 -0.1)">
       <defs>
        <path id="DejaVuSans-2e" d="M 684 794 
L 1344 794 
L 1344 0 
L 684 0 
L 684 794 
z
" transform="scale(0.015625)"/>
       </defs>
       <use xlink:href="#DejaVuSans-30"/>
       <use xlink:href="#DejaVuSans-2e" x="63.623047"/>
       <use xlink:href="#DejaVuSans-30" x="95.410156"/>
      </g>
     </g>
    </g>
    <g id="ytick_2">
     <g id="line2d_9">
      <g>
       <use xlink:href="#m9865f1fc6c" x="57.6" y="80.606118" style="stroke: #000000; stroke-width: 0.8"/>
      </g>
     </g>
     <g id="text_9">
      <!-- 0.5 -->
      <g transform="translate(34.696875 84.405336)scale(0.1 -0.1)">
       <defs>
        <path id="DejaVuSans-35" d="M 691 4666 
L 3169 4666 
L 3169 4134 
L 1269 4134 
L 1269 2991 
Q 1406 3038 1543 3061 
Q 1681 3084 1819 3084 
Q 2600 3084 3056 2656 
Q 3513 2228 3513 1497 
Q 3513 744 3044 326 
Q 2575 -91 1722 -91 
Q 1428 -91 1123 -41 
Q 819 9 494 109 
L 494 744 
Q 775 591 1075 516 
Q 1375 441 1709 441 
Q 2250 441 2565 725 
Q 2881 1009 2881 1497 
Q 2881 1984 2565 2268 
Q 2250 2553 1709 2553 
Q 1456 2553 1204 2497 
Q 953 2441 691 2322 
L 691 4666 
z
" transform="scale(0.015625)"/>
       </defs>
       <use xlink:href="#DejaVuSans-30"/>
       <use xlink:href="#DejaVuSans-2e" x="63.623047"/>
       <use xlink:href="#DejaVuSans-35" x="95.410156"/>
      </g>
     </g>
    </g>
    <g id="ytick_3">
     <g id="line2d_10">
      <g>
       <use xlink:href="#m9865f1fc6c" x="57.6" y="45.029647" style="stroke: #000000; stroke-width: 0.8"/>
      </g>
     </g>
     <g id="text_10">
      <!-- 1.0 -->
      <g transform="translate(34.696875 48.828866)scale(0.1 -0.1)">
       <use xlink:href="#DejaVuSans-31"/>
       <use xlink:href="#DejaVuSans-2e" x="63.623047"/>
       <use xlink:href="#DejaVuSans-30" x="95.410156"/>
      </g>
     </g>
    </g>
   </g>
   <g id="line2d_11">
    <path d="M 73.832727 116.182588 
L 76.560917 115.756372 
L 79.289106 115.404727 
L 82.017296 115.671348 
L 84.745485 116.182588 
L 87.473675 115.542399 
L 90.201864 115.920034 
L 92.930053 115.19434 
L 95.658243 116.164755 
L 98.386432 116.147487 
L 101.114622 115.915074 
L 103.842811 115.888948 
L 106.571001 115.356812 
L 109.29919 115.982952 
L 112.02738 116.000646 
L 114.755569 116.050847 
L 117.483759 115.207647 
L 120.211948 116.182588 
L 122.940138 115.650263 
L 125.668327 116.182588 
L 128.396516 115.832125 
L 131.124706 116.042673 
L 133.852895 115.644556 
L 136.581085 116.182588 
L 139.309274 116.106818 
L 142.037464 116.182588 
L 144.765653 116.1094 
L 147.493843 116.079908 
L 150.222032 116.173326 
L 152.950222 116.182588 
L 155.678411 116.182588 
L 158.4066 116.182588 
L 161.13479 116.182588 
L 163.862979 116.182588 
L 166.591169 116.182588 
L 169.319358 116.182588 
L 172.047548 116.182588 
L 174.775737 116.103461 
L 177.503927 116.182588 
L 180.232116 116.182588 
L 182.960306 116.182588 
L 185.688495 116.182588 
L 188.416684 116.182588 
L 191.144874 116.182588 
L 193.873063 116.182588 
L 196.601253 116.182588 
L 199.329442 116.182588 
L 202.057632 115.492611 
L 204.785821 114.45552 
L 207.514011 114.621839 
L 210.2422 113.763282 
L 212.97039 114.466554 
L 215.698579 113.701026 
L 218.426769 113.190089 
L 221.154958 114.516898 
L 223.883147 113.222854 
L 226.611337 113.671956 
L 229.339526 114.19828 
L 232.067716 112.964096 
L 234.795905 112.981414 
L 237.524095 114.547326 
L 240.252284 114.427479 
L 242.980474 114.433249 
L 245.708663 114.269393 
L 248.436853 114.857365 
L 251.165042 115.634838 
L 253.893231 115.513161 
L 256.621421 115.674132 
L 259.34961 115.525004 
L 262.0778 115.749657 
L 264.805989 115.985428 
L 267.534179 115.971821 
L 270.262368 116.081309 
L 272.990558 116.067693 
L 275.718747 116.045423 
L 278.446937 116.182588 
L 281.175126 116.127621 
L 283.903316 116.059021 
L 286.631505 115.94416 
L 289.359694 116.182588 
L 292.087884 116.182588 
L 294.816073 115.522777 
L 297.544263 115.501317 
L 300.272452 116.182588 
L 303.000642 116.182588 
L 305.728831 116.182588 
L 308.457021 116.182588 
L 311.18521 116.066816 
L 313.9134 116.182588 
L 316.641589 116.182588 
L 319.369778 115.973517 
L 322.097968 116.182588 
L 324.826157 116.182588 
L 327.554347 116.182588 
L 330.282536 116.182588 
L 333.010726 116.182588 
L 335.738915 116.182588 
L 338.467105 116.131839 
L 341.195294 116.182588 
L 343.923484 115.932181 
L 346.651673 116.182588 
L 349.379862 116.182588 
L 352.108052 116.182588 
L 354.836241 116.182588 
L 357.564431 116.182588 
L 360.29262 116.182588 
L 363.02081 116.182588 
L 365.748999 116.182588 
L 368.477189 116.182588 
L 371.205378 116.182588 
L 373.933568 116.182588 
L 376.661757 116.182588 
L 379.389947 116.182588 
L 382.118136 116.182588 
L 384.846325 116.062328 
L 387.574515 115.983386 
L 390.302704 116.182588 
L 393.030894 115.409772 
L 395.759083 115.23748 
L 398.487273 116.182588 
" clip-path="url(#pbf8ee1815b)" style="fill: none; stroke: #0000ff; stroke-width: 0.5; stroke-linecap: square"/>
   </g>
   <g id="line2d_12">
    <path d="M 73.832727 116.182588 
L 76.560917 115.756372 
L 79.289106 115.322664 
L 82.017296 115.637605 
L 84.745485 116.182588 
L 87.473675 115.503527 
L 90.201864 115.920034 
L 92.930053 115.347533 
L 95.658243 116.164755 
L 98.386432 116.065289 
L 101.114622 115.825452 
L 103.842811 116.182588 
L 106.571001 115.274749 
L 109.29919 115.982952 
L 112.02738 116.000646 
L 114.755569 116.050847 
L 117.483759 115.207647 
L 120.211948 116.182588 
L 122.940138 115.468822 
L 125.668327 116.182588 
L 128.396516 115.472985 
L 131.124706 115.367648 
L 133.852895 115.941866 
L 136.581085 116.081452 
L 139.309274 115.966296 
L 142.037464 115.988127 
L 144.765653 115.943603 
L 147.493843 116.182588 
L 150.222032 116.182588 
L 152.950222 116.182588 
L 155.678411 116.182588 
L 158.4066 116.182588 
L 161.13479 116.182588 
L 163.862979 116.182588 
L 166.591169 116.182588 
L 169.319358 116.182588 
L 172.047548 116.182588 
L 174.775737 115.942937 
L 177.503927 115.845327 
L 180.232116 115.923779 
L 182.960306 113.967562 
L 185.688495 112.422368 
L 188.416684 111.304176 
L 191.144874 109.60066 
L 193.873063 108.42372 
L 196.601253 100.035073 
L 199.329442 96.91128 
L 202.057632 96.321385 
L 204.785821 92.939795 
L 207.514011 95.426385 
L 210.2422 94.104638 
L 212.97039 90.240962 
L 215.698579 88.770306 
L 218.426769 97.213348 
L 221.154958 99.348133 
L 223.883147 100.557044 
L 226.611337 101.820753 
L 229.339526 101.538594 
L 232.067716 101.694824 
L 234.795905 102.642733 
L 237.524095 101.632602 
L 240.252284 102.400323 
L 242.980474 102.822786 
L 245.708663 103.000679 
L 248.436853 102.501485 
L 251.165042 103.399386 
L 253.893231 103.559045 
L 256.621421 106.392636 
L 259.34961 106.399325 
L 262.0778 108.945438 
L 264.805989 110.007804 
L 267.534179 111.020414 
L 270.262368 113.328824 
L 272.990558 115.06723 
L 275.718747 115.49936 
L 278.446937 115.605684 
L 281.175126 114.802448 
L 283.903316 115.605549 
L 286.631505 115.784438 
L 289.359694 116.182588 
L 292.087884 116.182588 
L 294.816073 116.182588 
L 297.544263 116.182588 
L 300.272452 116.182588 
L 303.000642 116.182588 
L 305.728831 115.267528 
L 308.457021 116.182588 
L 311.18521 116.182588 
L 313.9134 116.182588 
L 316.641589 116.182588 
L 319.369778 116.182588 
L 322.097968 116.182588 
L 324.826157 116.182588 
L 327.554347 116.182588 
L 330.282536 116.182588 
L 333.010726 116.182588 
L 335.738915 116.182588 
L 338.467105 115.989882 
L 341.195294 116.182588 
L 343.923484 116.11026 
L 346.651673 116.182588 
L 349.379862 116.182588 
L 352.108052 116.182588 
L 354.836241 116.182588 
L 357.564431 116.182588 
L 360.29262 116.182588 
L 363.02081 116.182588 
L 365.748999 116.182588 
L 368.477189 116.182588 
L 371.205378 116.007934 
L 373.933568 116.182588 
L 376.661757 116.182588 
L 379.389947 116.182588 
L 382.118136 115.754474 
L 384.846325 115.794307 
L 387.574515 115.952832 
L 390.302704 116.182588 
L 393.030894 115.549198 
L 395.759083 115.326899 
L 398.487273 116.182588 
" clip-path="url(#pbf8ee1815b)" style="fill: none; stroke: #0000ff; stroke-linecap: square"/>
   </g>
   <g id="line2d_13">
    <path d="M 73.832727 116.182588 
L 76.560917 116.074172 
L 79.289106 115.796433 
L 82.017296 116.011106 
L 84.745485 116.182588 
L 87.473675 115.889834 
L 90.201864 116.026712 
L 92.930053 115.323795 
L 95.658243 116.182588 
L 98.386432 116.182588 
L 101.114622 116.125115 
L 103.842811 116.119919 
L 106.571001 115.369846 
L 109.29919 116.119746 
L 112.02738 116.100441 
L 114.755569 115.834879 
L 117.483759 115.953591 
L 120.211948 116.043677 
L 122.940138 116.182588 
L 125.668327 115.850751 
L 128.396516 115.904356 
L 131.124706 116.182588 
L 133.852895 116.048249 
L 136.581085 116.182588 
L 139.309274 115.648858 
L 142.037464 115.725134 
L 144.765653 115.174516 
L 147.493843 116.032297 
L 150.222032 115.875054 
L 152.950222 116.182588 
L 155.678411 116.064631 
L 158.4066 115.742681 
L 161.13479 115.465094 
L 163.862979 115.231103 
L 166.591169 114.184192 
L 169.319358 111.14684 
L 172.047548 109.533209 
L 174.775737 106.708416 
L 177.503927 96.81329 
L 180.232116 91.807785 
L 182.960306 79.468033 
L 185.688495 76.644418 
L 188.416684 69.069382 
L 191.144874 64.020213 
L 193.873063 65.475212 
L 196.601253 63.271388 
L 199.329442 62.858914 
L 202.057632 65.716542 
L 204.785821 64.312833 
L 207.514011 68.349577 
L 210.2422 69.388591 
L 212.97039 69.521809 
L 215.698579 73.136006 
L 218.426769 74.202842 
L 221.154958 79.00545 
L 223.883147 87.757375 
L 226.611337 84.082525 
L 229.339526 86.323533 
L 232.067716 91.4466 
L 234.795905 94.79475 
L 237.524095 95.651384 
L 240.252284 99.454828 
L 242.980474 103.650115 
L 245.708663 104.440781 
L 248.436853 105.07147 
L 251.165042 103.955808 
L 253.893231 105.98734 
L 256.621421 109.328877 
L 259.34961 112.388727 
L 262.0778 113.846787 
L 264.805989 113.633709 
L 267.534179 113.363326 
L 270.262368 113.938206 
L 272.990558 113.887726 
L 275.718747 114.706348 
L 278.446937 115.256748 
L 281.175126 115.639225 
L 283.903316 116.070528 
L 286.631505 115.948007 
L 289.359694 116.182588 
L 292.087884 116.177898 
L 294.816073 116.182588 
L 297.544263 116.176801 
L 300.272452 116.182588 
L 303.000642 116.182588 
L 305.728831 116.182588 
L 308.457021 116.182588 
L 311.18521 116.182588 
L 313.9134 116.182588 
L 316.641589 116.182588 
L 319.369778 116.182588 
L 322.097968 116.182588 
L 324.826157 116.182588 
L 327.554347 116.182588 
L 330.282536 116.182588 
L 333.010726 116.182588 
L 335.738915 116.182588 
L 338.467105 116.182588 
L 341.195294 116.182588 
L 343.923484 116.182588 
L 346.651673 116.182588 
L 349.379862 116.182588 
L 352.108052 116.182588 
L 354.836241 116.182588 
L 357.564431 116.182588 
L 360.29262 116.182588 
L 363.02081 116.182588 
L 365.748999 116.182588 
L 368.477189 116.182588 
L 371.205378 116.182588 
L 373.933568 116.182588 
L 376.661757 116.182588 
L 379.389947 115.60786 
L 382.118136 116.176616 
L 384.846325 115.758236 
L 387.574515 115.490013 
L 390.302704 116.182588 
L 393.030894 115.447784 
L 395.759083 115.661124 
L 398.487273 116.182588 
" clip-path="url(#pbf8ee1815b)" style="fill: none; stroke: #0000ff; stroke-width: 1.5; stroke-linecap: square"/>
   </g>
   <g id="line2d_14">
    <path d="M 73.832727 116.182588 
L 76.560917 115.756372 
L 79.289106 115.404727 
L 82.017296 115.637605 
L 84.745485 116.182588 
L 87.473675 115.53727 
L 90.201864 115.920034 
L 92.930053 115.308526 
L 95.658243 116.164755 
L 98.386432 116.065289 
L 101.114622 115.915074 
L 103.842811 115.888948 
L 106.571001 115.356812 
L 109.29919 115.982952 
L 112.02738 116.000646 
L 114.755569 116.050847 
L 117.483759 115.656834 
L 120.211948 116.182588 
L 122.940138 115.662237 
L 125.668327 116.182588 
L 128.396516 116.104962 
L 131.124706 116.182588 
L 133.852895 116.023119 
L 136.581085 116.182588 
L 139.309274 115.405892 
L 142.037464 116.127621 
L 144.765653 116.141219 
L 147.493843 116.182588 
L 150.222032 116.057823 
L 152.950222 115.886696 
L 155.678411 115.968894 
L 158.4066 116.044208 
L 161.13479 116.001523 
L 163.862979 115.890441 
L 166.591169 115.070292 
L 169.319358 112.801226 
L 172.047548 109.227546 
L 174.775737 107.417318 
L 177.503927 100.106203 
L 180.232116 92.057348 
L 182.960306 81.316341 
L 185.688495 74.886138 
L 188.416684 67.745442 
L 191.144874 55.450568 
L 193.873063 53.626826 
L 196.601253 49.590622 
L 199.329442 48.378573 
L 202.057632 47.318233 
L 204.785821 48.101611 
L 207.514011 46.694662 
L 210.2422 45.029647 
L 212.97039 45.951776 
L 215.698579 48.517325 
L 218.426769 52.313818 
L 221.154958 57.216003 
L 223.883147 59.840399 
L 226.611337 62.63702 
L 229.339526 63.0225 
L 232.067716 64.201616 
L 234.795905 67.144344 
L 237.524095 69.929019 
L 240.252284 72.542483 
L 242.980474 75.302121 
L 245.708663 83.307178 
L 248.436853 82.711547 
L 251.165042 85.726822 
L 253.893231 87.23473 
L 256.621421 87.352088 
L 259.34961 90.109094 
L 262.0778 95.140987 
L 264.805989 98.948683 
L 267.534179 102.260357 
L 270.262368 105.429366 
L 272.990558 105.823754 
L 275.718747 110.507081 
L 278.446937 113.075667 
L 281.175126 114.783316 
L 283.903316 114.98456 
L 286.631505 115.927525 
L 289.359694 116.026054 
L 292.087884 116.182588 
L 294.816073 116.182588 
L 297.544263 116.182588 
L 300.272452 116.182588 
L 303.000642 116.182588 
L 305.728831 116.182588 
L 308.457021 116.182588 
L 311.18521 116.182588 
L 313.9134 116.182588 
L 316.641589 116.182588 
L 319.369778 115.842762 
L 322.097968 116.182588 
L 324.826157 116.182588 
L 327.554347 116.182588 
L 330.282536 116.182588 
L 333.010726 116.182588 
L 335.738915 116.182588 
L 338.467105 115.728154 
L 341.195294 116.182588 
L 343.923484 116.182588 
L 346.651673 116.182588 
L 349.379862 116.182588 
L 352.108052 116.182588 
L 354.836241 116.182588 
L 357.564431 116.182588 
L 360.29262 116.182588 
L 363.02081 116.182588 
L 365.748999 116.182588 
L 368.477189 116.182588 
L 371.205378 116.182588 
L 373.933568 116.182588 
L 376.661757 116.182588 
L 379.389947 115.67511 
L 382.118136 116.182588 
L 384.846325 116.05207 
L 387.574515 115.966987 
L 390.302704 116.182588 
L 393.030894 114.911523 
L 395.759083 115.320083 
L 398.487273 116.182588 
" clip-path="url(#pbf8ee1815b)" style="fill: none; stroke: #0000ff; stroke-width: 2; stroke-linecap: square"/>
   </g>
   <g id="patch_3">
    <path d="M 57.6 119.740235 
L 57.6 41.472 
" style="fill: none; stroke: #000000; stroke-width: 0.8; stroke-linejoin: miter; stroke-linecap: square"/>
   </g>
   <g id="patch_4">
    <path d="M 414.72 119.740235 
L 414.72 41.472 
" style="fill: none; stroke: #000000; stroke-width: 0.8; stroke-linejoin: miter; stroke-linecap: square"/>
   </g>
   <g id="patch_5">
    <path d="M 57.6 119.740235 
L 414.72 119.740235 
" style="fill: none; stroke: #000000; stroke-width: 0.8; stroke-linejoin: miter; stroke-linecap: square"/>
   </g>
   <g id="patch_6">
    <path d="M 57.6 41.472 
L 414.72 41.472 
" style="fill: none; stroke: #000000; stroke-width: 0.8; stroke-linejoin: miter; stroke-linecap: square"/>
   </g>
   <g id="legend_1">
    <g id="patch_7">
     <path d="M 356.6325 108.1845 
L 407.72 108.1845 
Q 409.72 108.1845 409.72 106.1845 
L 409.72 48.472 
Q 409.72 46.472 407.72 46.472 
L 356.6325 46.472 
Q 354.6325 46.472 354.6325 48.472 
L 354.6325 106.1845 
Q 354.6325 108.1845 356.6325 108.1845 
z
" style="fill: #ffffff; opacity: 0.8; stroke: #cccccc; stroke-linejoin: miter"/>
    </g>
    <g id="line2d_15">
     <path d="M 358.6325 54.570437 
L 368.6325 54.570437 
L 378.6325 54.570437 
" style="fill: none; stroke: #0000ff; stroke-width: 0.5; stroke-linecap: square"/>
    </g>
    <g id="text_11">
     <!-- 25 -->
     <g transform="translate(386.6325 58.070437)scale(0.1 -0.1)">
      <use xlink:href="#DejaVuSans-32"/>
      <use xlink:href="#DejaVuSans-35" x="63.623047"/>
     </g>
    </g>
    <g id="line2d_16">
     <path d="M 358.6325 69.248562 
L 368.6325 69.248562 
L 378.6325 69.248562 
" style="fill: none; stroke: #0000ff; stroke-linecap: square"/>
    </g>
    <g id="text_12">
     <!-- 50 -->
     <g transform="translate(386.6325 72.748562)scale(0.1 -0.1)">
      <use xlink:href="#DejaVuSans-35"/>
      <use xlink:href="#DejaVuSans-30" x="63.623047"/>
     </g>
    </g>
    <g id="line2d_17">
     <path d="M 358.6325 83.926687 
L 368.6325 83.926687 
L 378.6325 83.926687 
" style="fill: none; stroke: #0000ff; stroke-width: 1.5; stroke-linecap: square"/>
    </g>
    <g id="text_13">
     <!-- 75 -->
     <g transform="translate(386.6325 87.426687)scale(0.1 -0.1)">
      <defs>
       <path id="DejaVuSans-37" d="M 525 4666 
L 3525 4666 
L 3525 4397 
L 1831 0 
L 1172 0 
L 2766 4134 
L 525 4134 
L 525 4666 
z
" transform="scale(0.015625)"/>
      </defs>
      <use xlink:href="#DejaVuSans-37"/>
      <use xlink:href="#DejaVuSans-35" x="63.623047"/>
     </g>
    </g>
    <g id="line2d_18">
     <path d="M 358.6325 98.604812 
L 368.6325 98.604812 
L 378.6325 98.604812 
" style="fill: none; stroke: #0000ff; stroke-width: 2; stroke-linecap: square"/>
    </g>
    <g id="text_14">
     <!-- 100 -->
     <g transform="translate(386.6325 102.104812)scale(0.1 -0.1)">
      <use xlink:href="#DejaVuSans-31"/>
      <use xlink:href="#DejaVuSans-30" x="63.623047"/>
      <use xlink:href="#DejaVuSans-30" x="127.246094"/>
     </g>
    </g>
   </g>
  </g>
  <g id="axes_2">
   <g id="patch_8">
    <path d="M 57.6 213.662118 
L 414.72 213.662118 
L 414.72 135.393882 
L 57.6 135.393882 
z
" style="fill: #ffffff"/>
   </g>
   <g id="matplotlib.axis_3">
    <g id="xtick_8">
     <g id="line2d_19">
      <g>
       <use xlink:href="#mb27909c447" x="73.832727" y="213.662118" style="stroke: #000000; stroke-width: 0.8"/>
      </g>
     </g>
     <g id="text_15">
      <!-- 0 -->
      <g transform="translate(70.651477 228.260555)scale(0.1 -0.1)">
       <use xlink:href="#DejaVuSans-30"/>
      </g>
     </g>
    </g>
    <g id="xtick_9">
     <g id="line2d_20">
      <g>
       <use xlink:href="#mb27909c447" x="128.396516" y="213.662118" style="stroke: #000000; stroke-width: 0.8"/>
      </g>
     </g>
     <g id="text_16">
      <!-- 20 -->
      <g transform="translate(122.034016 228.260555)scale(0.1 -0.1)">
       <use xlink:href="#DejaVuSans-32"/>
       <use xlink:href="#DejaVuSans-30" x="63.623047"/>
      </g>
     </g>
    </g>
    <g id="xtick_10">
     <g id="line2d_21">
      <g>
       <use xlink:href="#mb27909c447" x="182.960306" y="213.662118" style="stroke: #000000; stroke-width: 0.8"/>
      </g>
     </g>
     <g id="text_17">
      <!-- 40 -->
      <g transform="translate(176.597806 228.260555)scale(0.1 -0.1)">
       <use xlink:href="#DejaVuSans-34"/>
       <use xlink:href="#DejaVuSans-30" x="63.623047"/>
      </g>
     </g>
    </g>
    <g id="xtick_11">
     <g id="line2d_22">
      <g>
       <use xlink:href="#mb27909c447" x="237.524095" y="213.662118" style="stroke: #000000; stroke-width: 0.8"/>
      </g>
     </g>
     <g id="text_18">
      <!-- 60 -->
      <g transform="translate(231.161595 228.260555)scale(0.1 -0.1)">
       <use xlink:href="#DejaVuSans-36"/>
       <use xlink:href="#DejaVuSans-30" x="63.623047"/>
      </g>
     </g>
    </g>
    <g id="xtick_12">
     <g id="line2d_23">
      <g>
       <use xlink:href="#mb27909c447" x="292.087884" y="213.662118" style="stroke: #000000; stroke-width: 0.8"/>
      </g>
     </g>
     <g id="text_19">
      <!-- 80 -->
      <g transform="translate(285.725384 228.260555)scale(0.1 -0.1)">
       <use xlink:href="#DejaVuSans-38"/>
       <use xlink:href="#DejaVuSans-30" x="63.623047"/>
      </g>
     </g>
    </g>
    <g id="xtick_13">
     <g id="line2d_24">
      <g>
       <use xlink:href="#mb27909c447" x="346.651673" y="213.662118" style="stroke: #000000; stroke-width: 0.8"/>
      </g>
     </g>
     <g id="text_20">
      <!-- 100 -->
      <g transform="translate(337.107923 228.260555)scale(0.1 -0.1)">
       <use xlink:href="#DejaVuSans-31"/>
       <use xlink:href="#DejaVuSans-30" x="63.623047"/>
       <use xlink:href="#DejaVuSans-30" x="127.246094"/>
      </g>
     </g>
    </g>
    <g id="xtick_14">
     <g id="line2d_25">
      <g>
       <use xlink:href="#mb27909c447" x="401.215462" y="213.662118" style="stroke: #000000; stroke-width: 0.8"/>
      </g>
     </g>
     <g id="text_21">
      <!-- 120 -->
      <g transform="translate(391.671712 228.260555)scale(0.1 -0.1)">
       <use xlink:href="#DejaVuSans-31"/>
       <use xlink:href="#DejaVuSans-32" x="63.623047"/>
       <use xlink:href="#DejaVuSans-30" x="127.246094"/>
      </g>
     </g>
    </g>
   </g>
   <g id="matplotlib.axis_4">
    <g id="ytick_4">
     <g id="line2d_26">
      <g>
       <use xlink:href="#m9865f1fc6c" x="57.6" y="210.104471" style="stroke: #000000; stroke-width: 0.8"/>
      </g>
     </g>
     <g id="text_22">
      <!-- 0.0 -->
      <g transform="translate(34.696875 213.903689)scale(0.1 -0.1)">
       <use xlink:href="#DejaVuSans-30"/>
       <use xlink:href="#DejaVuSans-2e" x="63.623047"/>
       <use xlink:href="#DejaVuSans-30" x="95.410156"/>
      </g>
     </g>
    </g>
    <g id="ytick_5">
     <g id="line2d_27">
      <g>
       <use xlink:href="#m9865f1fc6c" x="57.6" y="174.528" style="stroke: #000000; stroke-width: 0.8"/>
      </g>
     </g>
     <g id="text_23">
      <!-- 0.5 -->
      <g transform="translate(34.696875 178.327219)scale(0.1 -0.1)">
       <use xlink:href="#DejaVuSans-30"/>
       <use xlink:href="#DejaVuSans-2e" x="63.623047"/>
       <use xlink:href="#DejaVuSans-35" x="95.410156"/>
      </g>
     </g>
    </g>
    <g id="ytick_6">
     <g id="line2d_28">
      <g>
       <use xlink:href="#m9865f1fc6c" x="57.6" y="138.951529" style="stroke: #000000; stroke-width: 0.8"/>
      </g>
     </g>
     <g id="text_24">
      <!-- 1.0 -->
      <g transform="translate(34.696875 142.750748)scale(0.1 -0.1)">
       <use xlink:href="#DejaVuSans-31"/>
       <use xlink:href="#DejaVuSans-2e" x="63.623047"/>
       <use xlink:href="#DejaVuSans-30" x="95.410156"/>
      </g>
     </g>
    </g>
   </g>
   <g id="line2d_29">
    <path d="M 73.832727 210.104471 
L 76.560917 210.104471 
L 79.289106 210.104471 
L 82.017296 209.889033 
L 84.745485 210.015194 
L 87.473675 210.104471 
L 90.201864 210.104471 
L 92.930053 209.66957 
L 95.658243 209.830901 
L 98.386432 209.513914 
L 101.114622 209.880257 
L 103.842811 210.104471 
L 106.571001 209.524471 
L 109.29919 210.104471 
L 112.02738 210.104471 
L 114.755569 210.104471 
L 117.483759 207.920763 
L 120.211948 210.104471 
L 122.940138 209.29356 
L 125.668327 210.104471 
L 128.396516 210.104471 
L 131.124706 209.385212 
L 133.852895 210.104471 
L 136.581085 210.104471 
L 139.309274 209.026424 
L 142.037464 210.104471 
L 144.765653 208.787166 
L 147.493843 209.394021 
L 150.222032 210.104471 
L 152.950222 209.820739 
L 155.678411 210.104471 
L 158.4066 210.104471 
L 161.13479 210.104471 
L 163.862979 210.104471 
L 166.591169 209.207616 
L 169.319358 210.104471 
L 172.047548 210.104471 
L 174.775737 210.104471 
L 177.503927 209.836575 
L 180.232116 208.207694 
L 182.960306 206.855418 
L 185.688495 206.928198 
L 188.416684 204.797244 
L 191.144874 205.030992 
L 193.873063 204.571447 
L 196.601253 203.361762 
L 199.329442 205.588953 
L 202.057632 203.9735 
L 204.785821 204.14387 
L 207.514011 204.729281 
L 210.2422 203.862712 
L 212.97039 204.637695 
L 215.698579 204.286528 
L 218.426769 205.360616 
L 221.154958 205.643555 
L 223.883147 206.077202 
L 226.611337 207.907929 
L 229.339526 205.883869 
L 232.067716 206.775445 
L 234.795905 206.67439 
L 237.524095 207.804004 
L 240.252284 208.805641 
L 242.980474 208.996071 
L 245.708663 208.089583 
L 248.436853 205.90119 
L 251.165042 204.291015 
L 253.893231 205.262036 
L 256.621421 206.043847 
L 259.34961 205.720492 
L 262.0778 203.04075 
L 264.805989 203.348367 
L 267.534179 200.930185 
L 270.262368 205.680737 
L 272.990558 203.765914 
L 275.718747 204.511203 
L 278.446937 205.297403 
L 281.175126 204.787742 
L 283.903316 205.669817 
L 286.631505 206.82876 
L 289.359694 210.06752 
L 292.087884 210.104471 
L 294.816073 210.104471 
L 297.544263 210.104471 
L 300.272452 210.104471 
L 303.000642 210.104471 
L 305.728831 209.15562 
L 308.457021 210.104471 
L 311.18521 210.104471 
L 313.9134 210.104471 
L 316.641589 210.104471 
L 319.369778 210.104471 
L 322.097968 210.104471 
L 324.826157 210.104471 
L 327.554347 209.157732 
L 330.282536 208.462788 
L 333.010726 209.440407 
L 335.738915 210.104471 
L 338.467105 209.8342 
L 341.195294 210.104471 
L 343.923484 210.104471 
L 346.651673 210.104471 
L 349.379862 210.104471 
L 352.108052 209.879333 
L 354.836241 208.560445 
L 357.564431 209.445686 
L 360.29262 210.104471 
L 363.02081 210.104471 
L 365.748999 210.104471 
L 368.477189 208.881919 
L 371.205378 210.104471 
L 373.933568 209.149022 
L 376.661757 210.104471 
L 379.389947 209.244963 
L 382.118136 210.030107 
L 384.846325 210.104471 
L 387.574515 209.389996 
L 390.302704 210.104471 
L 393.030894 208.415214 
L 395.759083 208.430192 
L 398.487273 208.492877 
" clip-path="url(#p3f65d35559)" style="fill: none; stroke: #00bf00; stroke-width: 0.5; stroke-linecap: square"/>
   </g>
   <g id="line2d_30">
    <path d="M 73.832727 210.104471 
L 76.560917 209.99784 
L 79.289106 210.104471 
L 82.017296 209.956073 
L 84.745485 209.773429 
L 87.473675 210.104471 
L 90.201864 210.104471 
L 92.930053 209.852346 
L 95.658243 209.830901 
L 98.386432 209.513914 
L 101.114622 209.943931 
L 103.842811 210.104471 
L 106.571001 209.524471 
L 109.29919 210.104471 
L 112.02738 210.104471 
L 114.755569 210.104471 
L 117.483759 208.799142 
L 120.211948 210.104471 
L 122.940138 209.496791 
L 125.668327 210.104471 
L 128.396516 210.104471 
L 131.124706 209.440482 
L 133.852895 209.696293 
L 136.581085 210.104471 
L 139.309274 210.099786 
L 142.037464 209.127907 
L 144.765653 208.923357 
L 147.493843 210.104471 
L 150.222032 210.104471 
L 152.950222 210.104471 
L 155.678411 210.104471 
L 158.4066 210.104471 
L 161.13479 208.576413 
L 163.862979 210.104471 
L 166.591169 206.591086 
L 169.319358 202.787569 
L 172.047548 201.281748 
L 174.775737 199.58774 
L 177.503927 197.249266 
L 180.232116 194.03921 
L 182.960306 191.571408 
L 185.688495 190.312961 
L 188.416684 188.858409 
L 191.144874 188.287515 
L 193.873063 187.996658 
L 196.601253 185.020514 
L 199.329442 185.814962 
L 202.057632 180.914725 
L 204.785821 185.444396 
L 207.514011 182.93278 
L 210.2422 183.101699 
L 212.97039 179.893292 
L 215.698579 183.975856 
L 218.426769 182.078155 
L 221.154958 182.413354 
L 223.883147 181.267344 
L 226.611337 182.285609 
L 229.339526 179.958749 
L 232.067716 179.780328 
L 234.795905 178.56411 
L 237.524095 179.980919 
L 240.252284 182.732189 
L 242.980474 181.775684 
L 245.708663 181.492217 
L 248.436853 180.590084 
L 251.165042 179.550176 
L 253.893231 183.673913 
L 256.621421 182.584385 
L 259.34961 182.530542 
L 262.0778 185.003095 
L 264.805989 184.284133 
L 267.534179 186.997396 
L 270.262368 187.061796 
L 272.990558 189.646258 
L 275.718747 188.825945 
L 278.446937 189.29839 
L 281.175126 191.296914 
L 283.903316 197.544809 
L 286.631505 198.239489 
L 289.359694 199.560225 
L 292.087884 203.850505 
L 294.816073 205.942991 
L 297.544263 204.207347 
L 300.272452 200.945097 
L 303.000642 201.31276 
L 305.728831 207.963949 
L 308.457021 207.839371 
L 311.18521 209.543343 
L 313.9134 203.485482 
L 316.641589 209.81678 
L 319.369778 210.104471 
L 322.097968 210.104471 
L 324.826157 210.104471 
L 327.554347 210.104471 
L 330.282536 210.104471 
L 333.010726 210.104471 
L 335.738915 210.104471 
L 338.467105 210.104471 
L 341.195294 209.365714 
L 343.923484 210.104471 
L 346.651673 209.099402 
L 349.379862 209.817308 
L 352.108052 209.049782 
L 354.836241 210.104471 
L 357.564431 209.621995 
L 360.29262 210.104471 
L 363.02081 210.104471 
L 365.748999 210.104471 
L 368.477189 210.104471 
L 371.205378 210.104471 
L 373.933568 208.643189 
L 376.661757 210.104471 
L 379.389947 210.104471 
L 382.118136 210.104471 
L 384.846325 210.104471 
L 387.574515 209.175152 
L 390.302704 210.104471 
L 393.030894 209.600155 
L 395.759083 209.037542 
L 398.487273 208.73649 
" clip-path="url(#p3f65d35559)" style="fill: none; stroke: #00bf00; stroke-linecap: square"/>
   </g>
   <g id="line2d_31">
    <path d="M 73.832727 210.104471 
L 76.560917 210.104471 
L 79.289106 210.104471 
L 82.017296 209.956073 
L 84.745485 210.104471 
L 87.473675 210.104471 
L 90.201864 210.104471 
L 92.930053 209.852346 
L 95.658243 209.830901 
L 98.386432 209.513914 
L 101.114622 209.943931 
L 103.842811 210.104471 
L 106.571001 209.524471 
L 109.29919 210.104471 
L 112.02738 210.104471 
L 114.755569 210.104471 
L 117.483759 207.821193 
L 120.211948 210.104471 
L 122.940138 209.56162 
L 125.668327 210.104471 
L 128.396516 210.104471 
L 131.124706 208.787397 
L 133.852895 209.965376 
L 136.581085 210.104471 
L 139.309274 210.104471 
L 142.037464 209.871679 
L 144.765653 209.668151 
L 147.493843 210.104471 
L 150.222032 208.671298 
L 152.950222 210.104471 
L 155.678411 210.104471 
L 158.4066 206.145298 
L 161.13479 205.518317 
L 163.862979 202.47751 
L 166.591169 196.079964 
L 169.319358 193.12388 
L 172.047548 190.641297 
L 174.775737 180.656596 
L 177.503927 177.019556 
L 180.232116 173.283277 
L 182.960306 172.585431 
L 185.688495 169.256669 
L 188.416684 165.59218 
L 191.144874 153.062607 
L 193.873063 148.489123 
L 196.601253 147.6762 
L 199.329442 147.146216 
L 202.057632 147.840896 
L 204.785821 147.680423 
L 207.514011 145.459137 
L 210.2422 146.759814 
L 212.97039 145.281772 
L 215.698579 145.142414 
L 218.426769 145.611164 
L 221.154958 145.894104 
L 223.883147 145.10863 
L 226.611337 144.635657 
L 229.339526 144.622988 
L 232.067716 144.432954 
L 234.795905 143.981095 
L 237.524095 144.741231 
L 240.252284 144.39917 
L 242.980474 145.239542 
L 245.708663 145.615387 
L 248.436853 145.872989 
L 251.165042 145.484475 
L 253.893231 146.535996 
L 256.621421 145.269103 
L 259.34961 146.861166 
L 262.0778 146.873834 
L 264.805989 148.525018 
L 267.534179 152.099769 
L 270.262368 149.538533 
L 272.990558 150.273331 
L 275.718747 153.883976 
L 278.446937 165.509832 
L 281.175126 169.423476 
L 283.903316 172.228589 
L 286.631505 179.569179 
L 289.359694 177.957057 
L 292.087884 186.928772 
L 294.816073 194.590308 
L 297.544263 200.639723 
L 300.272452 197.023271 
L 303.000642 199.142942 
L 305.728831 201.041962 
L 308.457021 206.688742 
L 311.18521 206.371161 
L 313.9134 206.861752 
L 316.641589 210.104471 
L 319.369778 210.104471 
L 322.097968 210.104471 
L 324.826157 210.104471 
L 327.554347 210.104471 
L 330.282536 209.441727 
L 333.010726 210.104471 
L 335.738915 209.827074 
L 338.467105 210.104471 
L 341.195294 210.104471 
L 343.923484 210.104471 
L 346.651673 209.289172 
L 349.379862 210.104471 
L 352.108052 210.104471 
L 354.836241 210.104471 
L 357.564431 210.104471 
L 360.29262 210.104471 
L 363.02081 210.104471 
L 365.748999 210.104471 
L 368.477189 208.778588 
L 371.205378 208.888006 
L 373.933568 210.104471 
L 376.661757 208.392845 
L 379.389947 210.104471 
L 382.118136 209.056908 
L 384.846325 210.104471 
L 387.574515 209.600353 
L 390.302704 209.839413 
L 393.030894 208.756615 
L 395.759083 207.910502 
L 398.487273 208.871625 
" clip-path="url(#p3f65d35559)" style="fill: none; stroke: #00bf00; stroke-width: 1.5; stroke-linecap: square"/>
   </g>
   <g id="line2d_32">
    <path d="M 73.832727 210.104471 
L 76.560917 210.104471 
L 79.289106 210.104471 
L 82.017296 209.889033 
L 84.745485 209.773429 
L 87.473675 210.104471 
L 90.201864 210.104471 
L 92.930053 209.852346 
L 95.658243 209.830901 
L 98.386432 209.755679 
L 101.114622 209.943931 
L 103.842811 210.104471 
L 106.571001 209.524471 
L 109.29919 210.104471 
L 112.02738 210.104471 
L 114.755569 210.104471 
L 117.483759 207.821193 
L 120.211948 210.104471 
L 122.940138 209.839182 
L 125.668327 210.104471 
L 128.396516 210.104471 
L 131.124706 209.192835 
L 133.852895 210.024267 
L 136.581085 210.104471 
L 139.309274 208.010732 
L 142.037464 208.757143 
L 144.765653 209.902955 
L 147.493843 209.159184 
L 150.222032 209.577984 
L 152.950222 210.104471 
L 155.678411 209.789199 
L 158.4066 206.235696 
L 161.13479 204.367556 
L 163.862979 205.635505 
L 166.591169 201.401971 
L 169.319358 192.235999 
L 172.047548 189.14214 
L 174.775737 186.391398 
L 177.503927 179.644137 
L 180.232116 177.863096 
L 182.960306 174.908596 
L 185.688495 162.291924 
L 188.416684 148.119613 
L 191.144874 145.847651 
L 193.873063 142.984473 
L 196.601253 143.36454 
L 199.329442 140.932106 
L 202.057632 141.78937 
L 204.785821 139.006428 
L 207.514011 139.88903 
L 210.2422 141.582444 
L 212.97039 142.422817 
L 215.698579 141.253052 
L 218.426769 139.73278 
L 221.154958 140.404234 
L 223.883147 139.669436 
L 226.611337 141.802039 
L 229.339526 141.329066 
L 232.067716 139.504739 
L 234.795905 141.291059 
L 237.524095 141.367072 
L 240.252284 142.625519 
L 242.980474 150.216849 
L 245.708663 145.377845 
L 248.436853 141.1517 
L 251.165042 139.88903 
L 253.893231 140.395788 
L 256.621421 141.240383 
L 259.34961 142.245452 
L 262.0778 139.825686 
L 264.805989 141.958289 
L 267.534179 141.776701 
L 270.262368 140.687173 
L 272.990558 141.63312 
L 275.718747 143.204067 
L 278.446937 138.951529 
L 281.175126 139.648321 
L 283.903316 141.983627 
L 286.631505 152.790225 
L 289.359694 147.677256 
L 292.087884 146.806267 
L 294.816073 146.650017 
L 297.544263 146.702804 
L 300.272452 144.523748 
L 303.000642 146.65424 
L 305.728831 148.868663 
L 308.457021 141.523322 
L 311.18521 144.217582 
L 313.9134 141.854826 
L 316.641589 142.351026 
L 319.369778 147.612855 
L 322.097968 148.765728 
L 324.826157 155.412694 
L 327.554347 145.742077 
L 330.282536 147.541065 
L 333.010726 150.696684 
L 335.738915 158.454293 
L 338.467105 157.617088 
L 341.195294 173.598945 
L 343.923484 180.532018 
L 346.651673 183.01724 
L 349.379862 192.764927 
L 352.108052 195.130322 
L 354.836241 201.590421 
L 357.564431 202.417333 
L 360.29262 204.128166 
L 363.02081 206.051468 
L 365.748999 207.028428 
L 368.477189 207.290879 
L 371.205378 208.855327 
L 373.933568 208.574697 
L 376.661757 209.21494 
L 379.389947 209.153773 
L 382.118136 209.998632 
L 384.846325 210.104471 
L 387.574515 208.477041 
L 390.302704 209.683427 
L 393.030894 208.50614 
L 395.759083 208.577238 
L 398.487273 208.917022 
" clip-path="url(#p3f65d35559)" style="fill: none; stroke: #00bf00; stroke-width: 2; stroke-linecap: square"/>
   </g>
   <g id="patch_9">
    <path d="M 57.6 213.662118 
L 57.6 135.393882 
" style="fill: none; stroke: #000000; stroke-width: 0.8; stroke-linejoin: miter; stroke-linecap: square"/>
   </g>
   <g id="patch_10">
    <path d="M 414.72 213.662118 
L 414.72 135.393882 
" style="fill: none; stroke: #000000; stroke-width: 0.8; stroke-linejoin: miter; stroke-linecap: square"/>
   </g>
   <g id="patch_11">
    <path d="M 57.6 213.662118 
L 414.72 213.662118 
" style="fill: none; stroke: #000000; stroke-width: 0.8; stroke-linejoin: miter; stroke-linecap: square"/>
   </g>
   <g id="patch_12">
    <path d="M 57.6 135.393882 
L 414.72 135.393882 
" style="fill: none; stroke: #000000; stroke-width: 0.8; stroke-linejoin: miter; stroke-linecap: square"/>
   </g>
  </g>
  <g id="axes_3">
   <g id="patch_13">
    <path d="M 57.6 307.584 
L 414.72 307.584 
L 414.72 229.315765 
L 57.6 229.315765 
z
" style="fill: #ffffff"/>
   </g>
   <g id="matplotlib.axis_5">
    <g id="xtick_15">
     <g id="line2d_33">
      <g>
       <use xlink:href="#mb27909c447" x="73.832727" y="307.584" style="stroke: #000000; stroke-width: 0.8"/>
      </g>
     </g>
     <g id="text_25">
      <!-- 0 -->
      <g transform="translate(70.651477 322.182437)scale(0.1 -0.1)">
       <use xlink:href="#DejaVuSans-30"/>
      </g>
     </g>
    </g>
    <g id="xtick_16">
     <g id="line2d_34">
      <g>
       <use xlink:href="#mb27909c447" x="128.396516" y="307.584" style="stroke: #000000; stroke-width: 0.8"/>
      </g>
     </g>
     <g id="text_26">
      <!-- 20 -->
      <g transform="translate(122.034016 322.182437)scale(0.1 -0.1)">
       <use xlink:href="#DejaVuSans-32"/>
       <use xlink:href="#DejaVuSans-30" x="63.623047"/>
      </g>
     </g>
    </g>
    <g id="xtick_17">
     <g id="line2d_35">
      <g>
       <use xlink:href="#mb27909c447" x="182.960306" y="307.584" style="stroke: #000000; stroke-width: 0.8"/>
      </g>
     </g>
     <g id="text_27">
      <!-- 40 -->
      <g transform="translate(176.597806 322.182437)scale(0.1 -0.1)">
       <use xlink:href="#DejaVuSans-34"/>
       <use xlink:href="#DejaVuSans-30" x="63.623047"/>
      </g>
     </g>
    </g>
    <g id="xtick_18">
     <g id="line2d_36">
      <g>
       <use xlink:href="#mb27909c447" x="237.524095" y="307.584" style="stroke: #000000; stroke-width: 0.8"/>
      </g>
     </g>
     <g id="text_28">
      <!-- 60 -->
      <g transform="translate(231.161595 322.182437)scale(0.1 -0.1)">
       <use xlink:href="#DejaVuSans-36"/>
       <use xlink:href="#DejaVuSans-30" x="63.623047"/>
      </g>
     </g>
    </g>
    <g id="xtick_19">
     <g id="line2d_37">
      <g>
       <use xlink:href="#mb27909c447" x="292.087884" y="307.584" style="stroke: #000000; stroke-width: 0.8"/>
      </g>
     </g>
     <g id="text_29">
      <!-- 80 -->
      <g transform="translate(285.725384 322.182437)scale(0.1 -0.1)">
       <use xlink:href="#DejaVuSans-38"/>
       <use xlink:href="#DejaVuSans-30" x="63.623047"/>
      </g>
     </g>
    </g>
    <g id="xtick_20">
     <g id="line2d_38">
      <g>
       <use xlink:href="#mb27909c447" x="346.651673" y="307.584" style="stroke: #000000; stroke-width: 0.8"/>
      </g>
     </g>
     <g id="text_30">
      <!-- 100 -->
      <g transform="translate(337.107923 322.182437)scale(0.1 -0.1)">
       <use xlink:href="#DejaVuSans-31"/>
       <use xlink:href="#DejaVuSans-30" x="63.623047"/>
       <use xlink:href="#DejaVuSans-30" x="127.246094"/>
      </g>
     </g>
    </g>
    <g id="xtick_21">
     <g id="line2d_39">
      <g>
       <use xlink:href="#mb27909c447" x="401.215462" y="307.584" style="stroke: #000000; stroke-width: 0.8"/>
      </g>
     </g>
     <g id="text_31">
      <!-- 120 -->
      <g transform="translate(391.671712 322.182437)scale(0.1 -0.1)">
       <use xlink:href="#DejaVuSans-31"/>
       <use xlink:href="#DejaVuSans-32" x="63.623047"/>
       <use xlink:href="#DejaVuSans-30" x="127.246094"/>
      </g>
     </g>
    </g>
   </g>
   <g id="matplotlib.axis_6">
    <g id="ytick_7">
     <g id="line2d_40">
      <g>
       <use xlink:href="#m9865f1fc6c" x="57.6" y="304.026353" style="stroke: #000000; stroke-width: 0.8"/>
      </g>
     </g>
     <g id="text_32">
      <!-- 0.0 -->
      <g transform="translate(34.696875 307.825572)scale(0.1 -0.1)">
       <use xlink:href="#DejaVuSans-30"/>
       <use xlink:href="#DejaVuSans-2e" x="63.623047"/>
       <use xlink:href="#DejaVuSans-30" x="95.410156"/>
      </g>
     </g>
    </g>
    <g id="ytick_8">
     <g id="line2d_41">
      <g>
       <use xlink:href="#m9865f1fc6c" x="57.6" y="268.449882" style="stroke: #000000; stroke-width: 0.8"/>
      </g>
     </g>
     <g id="text_33">
      <!-- 0.5 -->
      <g transform="translate(34.696875 272.249101)scale(0.1 -0.1)">
       <use xlink:href="#DejaVuSans-30"/>
       <use xlink:href="#DejaVuSans-2e" x="63.623047"/>
       <use xlink:href="#DejaVuSans-35" x="95.410156"/>
      </g>
     </g>
    </g>
    <g id="ytick_9">
     <g id="line2d_42">
      <g>
       <use xlink:href="#m9865f1fc6c" x="57.6" y="232.873412" style="stroke: #000000; stroke-width: 0.8"/>
      </g>
     </g>
     <g id="text_34">
      <!-- 1.0 -->
      <g transform="translate(34.696875 236.672631)scale(0.1 -0.1)">
       <use xlink:href="#DejaVuSans-31"/>
       <use xlink:href="#DejaVuSans-2e" x="63.623047"/>
       <use xlink:href="#DejaVuSans-30" x="95.410156"/>
      </g>
     </g>
    </g>
   </g>
   <g id="line2d_43">
    <path d="M 73.832727 303.944843 
L 76.560917 304.026353 
L 79.289106 303.836607 
L 82.017296 304.026353 
L 84.745485 303.425295 
L 87.473675 302.794626 
L 90.201864 304.026353 
L 92.930053 303.815598 
L 95.658243 304.026353 
L 98.386432 303.628195 
L 101.114622 304.026353 
L 103.842811 302.891261 
L 106.571001 302.689323 
L 109.29919 304.026353 
L 112.02738 304.026353 
L 114.755569 303.654814 
L 117.483759 302.919757 
L 120.211948 303.380083 
L 122.940138 303.945679 
L 125.668327 304.026353 
L 128.396516 303.215391 
L 131.124706 303.705374 
L 133.852895 303.871293 
L 136.581085 304.026353 
L 139.309274 303.286249 
L 142.037464 303.709387 
L 144.765653 303.602823 
L 147.493843 304.005339 
L 150.222032 303.243417 
L 152.950222 304.026353 
L 155.678411 303.871074 
L 158.4066 303.648493 
L 161.13479 303.269936 
L 163.862979 303.362842 
L 166.591169 303.309955 
L 169.319358 303.9017 
L 172.047548 303.544344 
L 174.775737 303.260509 
L 177.503927 303.57351 
L 180.232116 303.743761 
L 182.960306 304.026353 
L 185.688495 302.79001 
L 188.416684 302.804019 
L 191.144874 301.992659 
L 193.873063 302.136177 
L 196.601253 298.975192 
L 199.329442 300.570609 
L 202.057632 300.967653 
L 204.785821 298.86614 
L 207.514011 298.7309 
L 210.2422 299.811546 
L 212.97039 298.192647 
L 215.698579 296.898673 
L 218.426769 299.901972 
L 221.154958 299.284278 
L 223.883147 299.178569 
L 226.611337 297.212455 
L 229.339526 298.511364 
L 232.067716 296.833083 
L 234.795905 300.215276 
L 237.524095 296.74027 
L 240.252284 300.758624 
L 242.980474 298.719438 
L 245.708663 300.367153 
L 248.436853 300.457259 
L 251.165042 297.546615 
L 253.893231 296.944841 
L 256.621421 296.68248 
L 259.34961 299.151505 
L 262.0778 299.710136 
L 264.805989 300.274339 
L 267.534179 299.392215 
L 270.262368 297.254962 
L 272.990558 297.91548 
L 275.718747 297.064081 
L 278.446937 297.396649 
L 281.175126 298.462967 
L 283.903316 297.951619 
L 286.631505 299.1367 
L 289.359694 299.97186 
L 292.087884 300.909545 
L 294.816073 300.008158 
L 297.544263 300.629672 
L 300.272452 301.679434 
L 303.000642 300.412047 
L 305.728831 302.052598 
L 308.457021 301.743591 
L 311.18521 303.021645 
L 313.9134 302.27293 
L 316.641589 302.882664 
L 319.369778 303.806817 
L 322.097968 302.27882 
L 324.826157 303.148209 
L 327.554347 302.194763 
L 330.282536 303.969041 
L 333.010726 304.026353 
L 335.738915 304.026353 
L 338.467105 303.5396 
L 341.195294 304.026353 
L 343.923484 302.548345 
L 346.651673 302.037076 
L 349.379862 303.080151 
L 352.108052 303.999879 
L 354.836241 303.027933 
L 357.564431 303.043376 
L 360.29262 302.529718 
L 363.02081 304.026353 
L 365.748999 303.304144 
L 368.477189 302.912514 
L 371.205378 302.987974 
L 373.933568 303.568177 
L 376.661757 303.606942 
L 379.389947 303.318711 
L 382.118136 303.838896 
L 384.846325 303.717028 
L 387.574515 302.951453 
L 390.302704 303.901461 
L 393.030894 303.955927 
L 395.759083 303.476398 
L 398.487273 303.855898 
" clip-path="url(#pc7623fa960)" style="fill: none; stroke: #ed0000; stroke-width: 0.5; stroke-linecap: square"/>
   </g>
   <g id="line2d_44">
    <path d="M 73.832727 304.026353 
L 76.560917 304.026353 
L 79.289106 302.955418 
L 82.017296 304.017729 
L 84.745485 304.026353 
L 87.473675 303.298493 
L 90.201864 304.026353 
L 92.930053 302.851083 
L 95.658243 304.026353 
L 98.386432 304.026353 
L 101.114622 304.026353 
L 103.842811 303.179889 
L 106.571001 302.821531 
L 109.29919 304.026353 
L 112.02738 304.026353 
L 114.755569 303.918528 
L 117.483759 302.902822 
L 120.211948 304.026353 
L 122.940138 303.441852 
L 125.668327 304.026353 
L 128.396516 303.215391 
L 131.124706 303.582982 
L 133.852895 303.896705 
L 136.581085 304.026353 
L 139.309274 304.026353 
L 142.037464 303.138816 
L 144.765653 304.026353 
L 147.493843 303.633926 
L 150.222032 303.597589 
L 152.950222 304.026353 
L 155.678411 303.915518 
L 158.4066 303.105988 
L 161.13479 302.979576 
L 163.862979 303.371996 
L 166.591169 302.681595 
L 169.319358 303.715469 
L 172.047548 303.818677 
L 174.775737 302.886485 
L 177.503927 303.880511 
L 180.232116 303.515721 
L 182.960306 303.459523 
L 185.688495 301.754258 
L 188.416684 302.136655 
L 191.144874 301.929138 
L 193.873063 294.595693 
L 196.601253 294.404335 
L 199.329442 296.806656 
L 202.057632 284.870196 
L 204.785821 281.775676 
L 207.514011 276.39537 
L 210.2422 275.817157 
L 212.97039 275.721638 
L 215.698579 272.37622 
L 218.426769 274.643539 
L 221.154958 275.79487 
L 223.883147 276.09512 
L 226.611337 274.813564 
L 229.339526 275.461187 
L 232.067716 277.522502 
L 234.795905 276.438991 
L 237.524095 277.060187 
L 240.252284 277.972082 
L 242.980474 274.717726 
L 245.708663 274.865463 
L 248.436853 274.747655 
L 251.165042 274.337557 
L 253.893231 274.217521 
L 256.621421 274.177403 
L 259.34961 274.183134 
L 262.0778 274.564576 
L 264.805989 275.107764 
L 267.534179 273.312949 
L 270.262368 277.406287 
L 272.990558 283.119638 
L 275.718747 284.431442 
L 278.446937 286.42462 
L 281.175126 285.942564 
L 283.903316 285.994781 
L 286.631505 292.216298 
L 289.359694 292.386323 
L 292.087884 296.552255 
L 294.816073 298.546547 
L 297.544263 297.641498 
L 300.272452 299.089577 
L 303.000642 299.44889 
L 305.728831 300.574112 
L 308.457021 301.178274 
L 311.18521 301.45146 
L 313.9134 302.287735 
L 316.641589 302.991238 
L 319.369778 303.066221 
L 322.097968 301.790874 
L 324.826157 302.777035 
L 327.554347 302.847162 
L 330.282536 302.73827 
L 333.010726 303.498129 
L 335.738915 302.80179 
L 338.467105 301.323543 
L 341.195294 303.869541 
L 343.923484 302.890544 
L 346.651673 302.489919 
L 349.379862 302.699982 
L 352.108052 303.763037 
L 354.836241 302.637656 
L 357.564431 302.635268 
L 360.29262 303.06049 
L 363.02081 303.483005 
L 365.748999 302.851301 
L 368.477189 302.568404 
L 371.205378 303.083255 
L 373.933568 303.554326 
L 376.661757 303.032948 
L 379.389947 302.523987 
L 382.118136 303.858716 
L 384.846325 302.775363 
L 387.574515 302.820098 
L 390.302704 303.347606 
L 393.030894 303.854584 
L 395.759083 303.786877 
L 398.487273 304.026353 
" clip-path="url(#pc7623fa960)" style="fill: none; stroke: #ed0000; stroke-linecap: square"/>
   </g>
   <g id="line2d_45">
    <path d="M 73.832727 304.026353 
L 76.560917 304.026353 
L 79.289106 302.955418 
L 82.017296 304.026353 
L 84.745485 304.026353 
L 87.473675 303.298493 
L 90.201864 304.026353 
L 92.930053 303.119737 
L 95.658243 304.026353 
L 98.386432 304.026353 
L 101.114622 304.026353 
L 103.842811 303.179889 
L 106.571001 302.821531 
L 109.29919 304.026353 
L 112.02738 304.026353 
L 114.755569 303.918528 
L 117.483759 302.902822 
L 120.211948 304.026353 
L 122.940138 303.441852 
L 125.668327 304.026353 
L 128.396516 303.215391 
L 131.124706 303.532961 
L 133.852895 304.026353 
L 136.581085 304.026353 
L 139.309274 304.026353 
L 142.037464 303.95293 
L 144.765653 303.834072 
L 147.493843 302.715345 
L 150.222032 303.335678 
L 152.950222 303.727257 
L 155.678411 303.411485 
L 158.4066 303.095275 
L 161.13479 302.935167 
L 163.862979 303.636951 
L 166.591169 303.486348 
L 169.319358 301.635097 
L 172.047548 303.697924 
L 174.775737 300.880252 
L 177.503927 300.370337 
L 180.232116 302.781094 
L 182.960306 302.957547 
L 185.688495 300.15488 
L 188.416684 294.985573 
L 191.144874 301.598879 
L 193.873063 284.368081 
L 196.601253 276.310357 
L 199.329442 265.777719 
L 202.057632 264.748653 
L 204.785821 252.827795 
L 207.514011 257.698026 
L 210.2422 251.528727 
L 212.97039 246.256597 
L 215.698579 248.176702 
L 218.426769 247.863955 
L 221.154958 245.543224 
L 223.883147 251.068959 
L 226.611337 256.591271 
L 229.339526 255.526863 
L 232.067716 255.914036 
L 234.795905 257.686564 
L 237.524095 257.5799 
L 240.252284 257.197184 
L 242.980474 257.84035 
L 245.708663 257.655679 
L 248.436853 251.292475 
L 251.165042 250.788449 
L 253.893231 249.244533 
L 256.621421 246.499297 
L 259.34961 243.732728 
L 262.0778 249.356928 
L 264.805989 249.866684 
L 267.534179 255.466049 
L 270.262368 255.757703 
L 272.990558 256.141692 
L 275.718747 257.898617 
L 278.446937 264.393957 
L 281.175126 264.462731 
L 283.903316 286.16608 
L 286.631505 273.319317 
L 289.359694 282.021799 
L 292.087884 283.918183 
L 294.816073 295.898263 
L 297.544263 290.914364 
L 300.272452 300.898242 
L 303.000642 300.588281 
L 305.728831 299.761398 
L 308.457021 299.3911 
L 311.18521 300.533198 
L 313.9134 301.208999 
L 316.641589 301.006736 
L 319.369778 300.44325 
L 322.097968 301.364378 
L 324.826157 302.765493 
L 327.554347 303.704452 
L 330.282536 303.151552 
L 333.010726 304.026353 
L 335.738915 304.026353 
L 338.467105 304.026353 
L 341.195294 302.659227 
L 343.923484 302.233926 
L 346.651673 302.804815 
L 349.379862 302.353723 
L 352.108052 303.662296 
L 354.836241 302.418756 
L 357.564431 302.414617 
L 360.29262 302.704838 
L 363.02081 303.801086 
L 365.748999 302.687963 
L 368.477189 303.276762 
L 371.205378 302.298402 
L 373.933568 303.535063 
L 376.661757 304.026353 
L 379.389947 303.020451 
L 382.118136 304.021736 
L 384.846325 303.920326 
L 387.574515 303.408467 
L 390.302704 303.415902 
L 393.030894 303.778288 
L 395.759083 303.55357 
L 398.487273 303.682768 
" clip-path="url(#pc7623fa960)" style="fill: none; stroke: #ed0000; stroke-width: 1.5; stroke-linecap: square"/>
   </g>
   <g id="line2d_46">
    <path d="M 73.832727 304.026353 
L 76.560917 304.026353 
L 79.289106 302.955418 
L 82.017296 304.026353 
L 84.745485 304.026353 
L 87.473675 303.374749 
L 90.201864 304.026353 
L 92.930053 302.891838 
L 95.658243 304.026353 
L 98.386432 304.026353 
L 101.114622 304.026353 
L 103.842811 303.1818 
L 106.571001 302.821531 
L 109.29919 304.026353 
L 112.02738 304.026353 
L 114.755569 303.918528 
L 117.483759 302.979099 
L 120.211948 304.026353 
L 122.940138 303.324801 
L 125.668327 304.026353 
L 128.396516 302.967709 
L 131.124706 304.026353 
L 133.852895 304.026353 
L 136.581085 303.598683 
L 139.309274 303.466933 
L 142.037464 303.949905 
L 144.765653 303.947868 
L 147.493843 304.026353 
L 150.222032 303.275409 
L 152.950222 302.686848 
L 155.678411 303.503191 
L 158.4066 303.37061 
L 161.13479 302.536915 
L 163.862979 302.599129 
L 166.591169 302.093751 
L 169.319358 302.948493 
L 172.047548 300.553257 
L 174.775737 303.12003 
L 177.503927 301.002518 
L 180.232116 302.776736 
L 182.960306 302.468586 
L 185.688495 300.909386 
L 188.416684 301.264679 
L 191.144874 301.683892 
L 193.873063 299.095089 
L 196.601253 298.533174 
L 199.329442 299.843545 
L 202.057632 293.889803 
L 204.785821 276.850362 
L 207.514011 265.469509 
L 210.2422 249.923996 
L 212.97039 240.265044 
L 215.698579 236.882373 
L 218.426769 237.371434 
L 221.154958 238.986354 
L 223.883147 237.57521 
L 226.611337 239.658813 
L 229.339526 239.653718 
L 232.067716 240.275233 
L 234.795905 239.857494 
L 237.524095 237.651625 
L 240.252284 235.868591 
L 242.980474 236.352558 
L 245.708663 237.285148 
L 248.436853 236.320081 
L 251.165042 238.011735 
L 253.893231 237.522674 
L 256.621421 237.15747 
L 259.34961 237.554514 
L 262.0778 238.246076 
L 264.805989 238.353058 
L 267.534179 238.831612 
L 270.262368 238.98922 
L 272.990558 238.119035 
L 275.718747 236.472912 
L 278.446937 235.352148 
L 281.175126 233.559243 
L 283.903316 234.070274 
L 286.631505 233.95565 
L 289.359694 234.297292 
L 292.087884 232.873412 
L 294.816073 234.089059 
L 297.544263 234.995859 
L 300.272452 236.642301 
L 303.000642 238.492836 
L 305.728831 240.501296 
L 308.457021 239.61551 
L 311.18521 244.287697 
L 313.9134 244.987538 
L 316.641589 259.412923 
L 319.369778 263.744423 
L 322.097968 272.381951 
L 324.826157 274.822797 
L 327.554347 280.912178 
L 330.282536 284.362668 
L 333.010726 285.390142 
L 335.738915 293.504221 
L 338.467105 297.033674 
L 341.195294 296.068766 
L 343.923484 303.037565 
L 346.651673 300.294717 
L 349.379862 303.403405 
L 352.108052 303.456419 
L 354.836241 303.556635 
L 357.564431 302.509182 
L 360.29262 302.445343 
L 363.02081 303.313617 
L 365.748999 303.110319 
L 368.477189 303.422828 
L 371.205378 302.395513 
L 373.933568 302.753394 
L 376.661757 304.026353 
L 379.389947 302.329127 
L 382.118136 303.576376 
L 384.846325 303.667517 
L 387.574515 303.984531 
L 390.302704 303.602564 
L 393.030894 303.736331 
L 395.759083 303.830657 
L 398.487273 303.878457 
" clip-path="url(#pc7623fa960)" style="fill: none; stroke: #ed0000; stroke-width: 2; stroke-linecap: square"/>
   </g>
   <g id="patch_14">
    <path d="M 57.6 307.584 
L 57.6 229.315765 
" style="fill: none; stroke: #000000; stroke-width: 0.8; stroke-linejoin: miter; stroke-linecap: square"/>
   </g>
   <g id="patch_15">
    <path d="M 414.72 307.584 
L 414.72 229.315765 
" style="fill: none; stroke: #000000; stroke-width: 0.8; stroke-linejoin: miter; stroke-linecap: square"/>
   </g>
   <g id="patch_16">
    <path d="M 57.6 307.584 
L 414.72 307.584 
" style="fill: none; stroke: #000000; stroke-width: 0.8; stroke-linejoin: miter; stroke-linecap: square"/>
   </g>
   <g id="patch_17">
    <path d="M 57.6 229.315765 
L 414.72 229.315765 
" style="fill: none; stroke: #000000; stroke-width: 0.8; stroke-linejoin: miter; stroke-linecap: square"/>
   </g>
  </g>
  <g id="text_35">
   <!-- NRE Predictions for expression strength level -->
   <g transform="translate(95.338125 16.030125)scale(0.12 -0.12)">
    <defs>
     <path id="DejaVuSans-4e" d="M 628 4666 
L 1478 4666 
L 3547 763 
L 3547 4666 
L 4159 4666 
L 4159 0 
L 3309 0 
L 1241 3903 
L 1241 0 
L 628 0 
L 628 4666 
z
" transform="scale(0.015625)"/>
     <path id="DejaVuSans-52" d="M 2841 2188 
Q 3044 2119 3236 1894 
Q 3428 1669 3622 1275 
L 4263 0 
L 3584 0 
L 2988 1197 
Q 2756 1666 2539 1819 
Q 2322 1972 1947 1972 
L 1259 1972 
L 1259 0 
L 628 0 
L 628 4666 
L 2053 4666 
Q 2853 4666 3247 4331 
Q 3641 3997 3641 3322 
Q 3641 2881 3436 2590 
Q 3231 2300 2841 2188 
z
M 1259 4147 
L 1259 2491 
L 2053 2491 
Q 2509 2491 2742 2702 
Q 2975 2913 2975 3322 
Q 2975 3731 2742 3939 
Q 2509 4147 2053 4147 
L 1259 4147 
z
" transform="scale(0.015625)"/>
     <path id="DejaVuSans-45" d="M 628 4666 
L 3578 4666 
L 3578 4134 
L 1259 4134 
L 1259 2753 
L 3481 2753 
L 3481 2222 
L 1259 2222 
L 1259 531 
L 3634 531 
L 3634 0 
L 628 0 
L 628 4666 
z
" transform="scale(0.015625)"/>
     <path id="DejaVuSans-20" transform="scale(0.015625)"/>
     <path id="DejaVuSans-50" d="M 1259 4147 
L 1259 2394 
L 2053 2394 
Q 2494 2394 2734 2622 
Q 2975 2850 2975 3272 
Q 2975 3691 2734 3919 
Q 2494 4147 2053 4147 
L 1259 4147 
z
M 628 4666 
L 2053 4666 
Q 2838 4666 3239 4311 
Q 3641 3956 3641 3272 
Q 3641 2581 3239 2228 
Q 2838 1875 2053 1875 
L 1259 1875 
L 1259 0 
L 628 0 
L 628 4666 
z
" transform="scale(0.015625)"/>
     <path id="DejaVuSans-72" d="M 2631 2963 
Q 2534 3019 2420 3045 
Q 2306 3072 2169 3072 
Q 1681 3072 1420 2755 
Q 1159 2438 1159 1844 
L 1159 0 
L 581 0 
L 581 3500 
L 1159 3500 
L 1159 2956 
Q 1341 3275 1631 3429 
Q 1922 3584 2338 3584 
Q 2397 3584 2469 3576 
Q 2541 3569 2628 3553 
L 2631 2963 
z
" transform="scale(0.015625)"/>
     <path id="DejaVuSans-65" d="M 3597 1894 
L 3597 1613 
L 953 1613 
Q 991 1019 1311 708 
Q 1631 397 2203 397 
Q 2534 397 2845 478 
Q 3156 559 3463 722 
L 3463 178 
Q 3153 47 2828 -22 
Q 2503 -91 2169 -91 
Q 1331 -91 842 396 
Q 353 884 353 1716 
Q 353 2575 817 3079 
Q 1281 3584 2069 3584 
Q 2775 3584 3186 3129 
Q 3597 2675 3597 1894 
z
M 3022 2063 
Q 3016 2534 2758 2815 
Q 2500 3097 2075 3097 
Q 1594 3097 1305 2825 
Q 1016 2553 972 2059 
L 3022 2063 
z
" transform="scale(0.015625)"/>
     <path id="DejaVuSans-64" d="M 2906 2969 
L 2906 4863 
L 3481 4863 
L 3481 0 
L 2906 0 
L 2906 525 
Q 2725 213 2448 61 
Q 2172 -91 1784 -91 
Q 1150 -91 751 415 
Q 353 922 353 1747 
Q 353 2572 751 3078 
Q 1150 3584 1784 3584 
Q 2172 3584 2448 3432 
Q 2725 3281 2906 2969 
z
M 947 1747 
Q 947 1113 1208 752 
Q 1469 391 1925 391 
Q 2381 391 2643 752 
Q 2906 1113 2906 1747 
Q 2906 2381 2643 2742 
Q 2381 3103 1925 3103 
Q 1469 3103 1208 2742 
Q 947 2381 947 1747 
z
" transform="scale(0.015625)"/>
     <path id="DejaVuSans-69" d="M 603 3500 
L 1178 3500 
L 1178 0 
L 603 0 
L 603 3500 
z
M 603 4863 
L 1178 4863 
L 1178 4134 
L 603 4134 
L 603 4863 
z
" transform="scale(0.015625)"/>
     <path id="DejaVuSans-63" d="M 3122 3366 
L 3122 2828 
Q 2878 2963 2633 3030 
Q 2388 3097 2138 3097 
Q 1578 3097 1268 2742 
Q 959 2388 959 1747 
Q 959 1106 1268 751 
Q 1578 397 2138 397 
Q 2388 397 2633 464 
Q 2878 531 3122 666 
L 3122 134 
Q 2881 22 2623 -34 
Q 2366 -91 2075 -91 
Q 1284 -91 818 406 
Q 353 903 353 1747 
Q 353 2603 823 3093 
Q 1294 3584 2113 3584 
Q 2378 3584 2631 3529 
Q 2884 3475 3122 3366 
z
" transform="scale(0.015625)"/>
     <path id="DejaVuSans-74" d="M 1172 4494 
L 1172 3500 
L 2356 3500 
L 2356 3053 
L 1172 3053 
L 1172 1153 
Q 1172 725 1289 603 
Q 1406 481 1766 481 
L 2356 481 
L 2356 0 
L 1766 0 
Q 1100 0 847 248 
Q 594 497 594 1153 
L 594 3053 
L 172 3053 
L 172 3500 
L 594 3500 
L 594 4494 
L 1172 4494 
z
" transform="scale(0.015625)"/>
     <path id="DejaVuSans-6f" d="M 1959 3097 
Q 1497 3097 1228 2736 
Q 959 2375 959 1747 
Q 959 1119 1226 758 
Q 1494 397 1959 397 
Q 2419 397 2687 759 
Q 2956 1122 2956 1747 
Q 2956 2369 2687 2733 
Q 2419 3097 1959 3097 
z
M 1959 3584 
Q 2709 3584 3137 3096 
Q 3566 2609 3566 1747 
Q 3566 888 3137 398 
Q 2709 -91 1959 -91 
Q 1206 -91 779 398 
Q 353 888 353 1747 
Q 353 2609 779 3096 
Q 1206 3584 1959 3584 
z
" transform="scale(0.015625)"/>
     <path id="DejaVuSans-6e" d="M 3513 2113 
L 3513 0 
L 2938 0 
L 2938 2094 
Q 2938 2591 2744 2837 
Q 2550 3084 2163 3084 
Q 1697 3084 1428 2787 
Q 1159 2491 1159 1978 
L 1159 0 
L 581 0 
L 581 3500 
L 1159 3500 
L 1159 2956 
Q 1366 3272 1645 3428 
Q 1925 3584 2291 3584 
Q 2894 3584 3203 3211 
Q 3513 2838 3513 2113 
z
" transform="scale(0.015625)"/>
     <path id="DejaVuSans-73" d="M 2834 3397 
L 2834 2853 
Q 2591 2978 2328 3040 
Q 2066 3103 1784 3103 
Q 1356 3103 1142 2972 
Q 928 2841 928 2578 
Q 928 2378 1081 2264 
Q 1234 2150 1697 2047 
L 1894 2003 
Q 2506 1872 2764 1633 
Q 3022 1394 3022 966 
Q 3022 478 2636 193 
Q 2250 -91 1575 -91 
Q 1294 -91 989 -36 
Q 684 19 347 128 
L 347 722 
Q 666 556 975 473 
Q 1284 391 1588 391 
Q 1994 391 2212 530 
Q 2431 669 2431 922 
Q 2431 1156 2273 1281 
Q 2116 1406 1581 1522 
L 1381 1569 
Q 847 1681 609 1914 
Q 372 2147 372 2553 
Q 372 3047 722 3315 
Q 1072 3584 1716 3584 
Q 2034 3584 2315 3537 
Q 2597 3491 2834 3397 
z
" transform="scale(0.015625)"/>
     <path id="DejaVuSans-66" d="M 2375 4863 
L 2375 4384 
L 1825 4384 
Q 1516 4384 1395 4259 
Q 1275 4134 1275 3809 
L 1275 3500 
L 2222 3500 
L 2222 3053 
L 1275 3053 
L 1275 0 
L 697 0 
L 697 3053 
L 147 3053 
L 147 3500 
L 697 3500 
L 697 3744 
Q 697 4328 969 4595 
Q 1241 4863 1831 4863 
L 2375 4863 
z
" transform="scale(0.015625)"/>
     <path id="DejaVuSans-78" d="M 3513 3500 
L 2247 1797 
L 3578 0 
L 2900 0 
L 1881 1375 
L 863 0 
L 184 0 
L 1544 1831 
L 300 3500 
L 978 3500 
L 1906 2253 
L 2834 3500 
L 3513 3500 
z
" transform="scale(0.015625)"/>
     <path id="DejaVuSans-70" d="M 1159 525 
L 1159 -1331 
L 581 -1331 
L 581 3500 
L 1159 3500 
L 1159 2969 
Q 1341 3281 1617 3432 
Q 1894 3584 2278 3584 
Q 2916 3584 3314 3078 
Q 3713 2572 3713 1747 
Q 3713 922 3314 415 
Q 2916 -91 2278 -91 
Q 1894 -91 1617 61 
Q 1341 213 1159 525 
z
M 3116 1747 
Q 3116 2381 2855 2742 
Q 2594 3103 2138 3103 
Q 1681 3103 1420 2742 
Q 1159 2381 1159 1747 
Q 1159 1113 1420 752 
Q 1681 391 2138 391 
Q 2594 391 2855 752 
Q 3116 1113 3116 1747 
z
" transform="scale(0.015625)"/>
     <path id="DejaVuSans-67" d="M 2906 1791 
Q 2906 2416 2648 2759 
Q 2391 3103 1925 3103 
Q 1463 3103 1205 2759 
Q 947 2416 947 1791 
Q 947 1169 1205 825 
Q 1463 481 1925 481 
Q 2391 481 2648 825 
Q 2906 1169 2906 1791 
z
M 3481 434 
Q 3481 -459 3084 -895 
Q 2688 -1331 1869 -1331 
Q 1566 -1331 1297 -1286 
Q 1028 -1241 775 -1147 
L 775 -588 
Q 1028 -725 1275 -790 
Q 1522 -856 1778 -856 
Q 2344 -856 2625 -561 
Q 2906 -266 2906 331 
L 2906 616 
Q 2728 306 2450 153 
Q 2172 0 1784 0 
Q 1141 0 747 490 
Q 353 981 353 1791 
Q 353 2603 747 3093 
Q 1141 3584 1784 3584 
Q 2172 3584 2450 3431 
Q 2728 3278 2906 2969 
L 2906 3500 
L 3481 3500 
L 3481 434 
z
" transform="scale(0.015625)"/>
     <path id="DejaVuSans-68" d="M 3513 2113 
L 3513 0 
L 2938 0 
L 2938 2094 
Q 2938 2591 2744 2837 
Q 2550 3084 2163 3084 
Q 1697 3084 1428 2787 
Q 1159 2491 1159 1978 
L 1159 0 
L 581 0 
L 581 4863 
L 1159 4863 
L 1159 2956 
Q 1366 3272 1645 3428 
Q 1925 3584 2291 3584 
Q 2894 3584 3203 3211 
Q 3513 2838 3513 2113 
z
" transform="scale(0.015625)"/>
     <path id="DejaVuSans-6c" d="M 603 4863 
L 1178 4863 
L 1178 0 
L 603 0 
L 603 4863 
z
" transform="scale(0.015625)"/>
     <path id="DejaVuSans-76" d="M 191 3500 
L 800 3500 
L 1894 563 
L 2988 3500 
L 3597 3500 
L 2284 0 
L 1503 0 
L 191 3500 
z
" transform="scale(0.015625)"/>
    </defs>
    <use xlink:href="#DejaVuSans-4e"/>
    <use xlink:href="#DejaVuSans-52" x="74.804688"/>
    <use xlink:href="#DejaVuSans-45" x="144.287109"/>
    <use xlink:href="#DejaVuSans-20" x="207.470703"/>
    <use xlink:href="#DejaVuSans-50" x="239.257812"/>
    <use xlink:href="#DejaVuSans-72" x="297.810547"/>
    <use xlink:href="#DejaVuSans-65" x="336.673828"/>
    <use xlink:href="#DejaVuSans-64" x="398.197266"/>
    <use xlink:href="#DejaVuSans-69" x="461.673828"/>
    <use xlink:href="#DejaVuSans-63" x="489.457031"/>
    <use xlink:href="#DejaVuSans-74" x="544.4375"/>
    <use xlink:href="#DejaVuSans-69" x="583.646484"/>
    <use xlink:href="#DejaVuSans-6f" x="611.429688"/>
    <use xlink:href="#DejaVuSans-6e" x="672.611328"/>
    <use xlink:href="#DejaVuSans-73" x="735.990234"/>
    <use xlink:href="#DejaVuSans-20" x="788.089844"/>
    <use xlink:href="#DejaVuSans-66" x="819.876953"/>
    <use xlink:href="#DejaVuSans-6f" x="855.082031"/>
    <use xlink:href="#DejaVuSans-72" x="916.263672"/>
    <use xlink:href="#DejaVuSans-20" x="957.376953"/>
    <use xlink:href="#DejaVuSans-65" x="989.164062"/>
    <use xlink:href="#DejaVuSans-78" x="1048.9375"/>
    <use xlink:href="#DejaVuSans-70" x="1108.117188"/>
    <use xlink:href="#DejaVuSans-72" x="1171.59375"/>
    <use xlink:href="#DejaVuSans-65" x="1210.457031"/>
    <use xlink:href="#DejaVuSans-73" x="1271.980469"/>
    <use xlink:href="#DejaVuSans-73" x="1324.080078"/>
    <use xlink:href="#DejaVuSans-69" x="1376.179688"/>
    <use xlink:href="#DejaVuSans-6f" x="1403.962891"/>
    <use xlink:href="#DejaVuSans-6e" x="1465.144531"/>
    <use xlink:href="#DejaVuSans-20" x="1528.523438"/>
    <use xlink:href="#DejaVuSans-73" x="1560.310547"/>
    <use xlink:href="#DejaVuSans-74" x="1612.410156"/>
    <use xlink:href="#DejaVuSans-72" x="1651.619141"/>
    <use xlink:href="#DejaVuSans-65" x="1690.482422"/>
    <use xlink:href="#DejaVuSans-6e" x="1752.005859"/>
    <use xlink:href="#DejaVuSans-67" x="1815.384766"/>
    <use xlink:href="#DejaVuSans-74" x="1878.861328"/>
    <use xlink:href="#DejaVuSans-68" x="1918.070312"/>
    <use xlink:href="#DejaVuSans-20" x="1981.449219"/>
    <use xlink:href="#DejaVuSans-6c" x="2013.236328"/>
    <use xlink:href="#DejaVuSans-65" x="2041.019531"/>
    <use xlink:href="#DejaVuSans-76" x="2102.542969"/>
    <use xlink:href="#DejaVuSans-65" x="2161.722656"/>
    <use xlink:href="#DejaVuSans-6c" x="2223.246094"/>
   </g>
  </g>
 </g>
 <defs>
  <clipPath id="pbf8ee1815b">
   <rect x="57.6" y="41.472" width="357.12" height="78.268235"/>
  </clipPath>
  <clipPath id="p3f65d35559">
   <rect x="57.6" y="135.393882" width="357.12" height="78.268235"/>
  </clipPath>
  <clipPath id="pc7623fa960">
   <rect x="57.6" y="229.315765" width="357.12" height="78.268235"/>
  </clipPath>
 </defs>
</svg>
